<?xml version="1.0" encoding="UTF-8"?>
<!-- Created with Inkscape (http://www.inkscape.org/) -->
<svg width="105.83mm" height="104.77mm" version="1.1" viewBox="0 0 105.83 104.77" xmlns="http://www.w3.org/2000/svg">
 <defs>
  <clipPath id="clipPath949">
   <path d="m0 2131.9h1845.6v-2131.9h-1845.6z"/>
  </clipPath>
 </defs>
 <g transform="translate(-.00024786 -.00023706)">
  <path transform="matrix(.2343 0 0 -.2343 -33.737 208.18)" d="m376.99 888.5c-7.6485 0.0571-15.158-0.19081-22.321-0.62256-4.574-0.275-1.5331-0.58307-10.56-0.85107-121.71-1.22-183.94-121.86-199.79-232.27-2.045-33.243 5.1967-66.346 24.012-93.87 14.474-24.097 32.237-48.691 56.846-62.584 14.217-8.353 25.619-20.783 40.545-28.116 15.35-8.998 33.642-11.59 50.297-17.574 25.427-8.632 52.333-13.655 79.099-10.112 7.936 2.907 16.901 1.353 24.359 5.521 3.533 2.09 7.2811 3.104 11.307 2.436 9.851-1.937 18.457 3.9012 28.031 4.7622 14.5 3.336 28.295 12.032 41.505 19.213 12.723 9.62 22.504 22.851 34.172 33.331 33.23 44.839 52.286 99.962 59.968 155.37-0.135 22.827 4.971 48.114-4.749 69.489-1.693 2.548-0.27562 5.8338-1.7036 8.5928-1.254 3.764-4.2076 6.4801-5.6646 10.163-4.8 11.778-10.799 22.659-16.935 33.656-12.523 19.112-35.121 28.578-48.959 46.455-19.213 21.637-46.151 35.292-72.356 44.887-19.95 9.0225-44.157 11.95-67.103 12.122zm-8.4609-8.3262c24.112-0.25814 48.275-3.0445 70.717-10.901 19.24-8.266 38.853-16.509 55.731-29.471 13.572-12.15 24.444-27.021 40.115-36.771 16.558-12.671 28.531-29.027 36.378-48.647 6.212-12.913 12.79-25.651 14.67-40.257 3.827-27.438-0.89639-54.91-6.0674-81.87-5.882-29.176-16.89-57.251-30.532-83.442-8.047-15.255-16.129-30.605-28.727-41.896-20.618-26.952-51.822-42.247-83.987-47.81-7.678 0.363-14.826 1.1728-21.634-3.2432-17.836-4.835-37.1-7.7799-55.639-5.2529-29.813 6.772-59.924 14.688-88.031 26.442-16.197 7.967-28.409 21.705-44.196 30.094-24.982 15.934-42.834 42.148-57.223 68.042-20.69 35.444-22.222 78.571-8.9238 116.99 11.544 46.519 29.388 92.822 61.14 128.72 26.502 29.405 64.957 51.289 103.24 57.552 14.048 1.1156 28.498 1.8702 42.965 1.7153zm-28.708-43.755c-2.795-0.085-6.3827 0.33653-8.3877-1.9805-0.488-0.583-0.88911-1.0985-1.7871-0.97852-2.47-2.621-0.7323-8.7131-2.4873-12.413-0.766-1.88 1.9642-2.1809 1.5352-3.8159-0.58699-8.601 0.76411-17.088 2.8081-25.434 10.739-29.713 33.185-24.037 30.104 8.0464 0.933 13.987-4.3512 36.156-21.785 36.576zm65.657-2.688c-0.4225 0.0165-0.90745-0.0311-1.4604-0.14942-3.99-13.215-11.554-26.67-13.532-41.002-4.812-20.002-6.2915-18.522 14.563-20.443 3.169 0.099 5.0608-0.76226 4.6318 3.1567-0.367 6.594-9.6884 1.997-13.731 5.001-1.151 0.474-0.8863 0.81628-0.4043 1.4883 2.933 10.823 4.837 22.445 7.875 33.486 0.74719 3.6487 8.3955 18.216 2.0581 18.463zm-66.401-4.3652c0.42821 0.0108 0.88069-1e-3 1.3564-0.0366 9.678-1.92 13.052-14.186 13.811-22.742 0.904-4.467 1.0782-28.094-4.9878-27.037-7.405 4.202-10.633 11.626-11.785 19.562-2.5691 8.0736-11.669 29.918 1.6055 30.253zm126.2-10.33c-6.4996 0.0721-14.456-6.7021-19.4-17.679-6.985-8.789-21.005-31.2-6.7324-38.653 17.06-0.611 37.205 18.534 36.894 35.817 0.16565 14.338-4.655 20.447-10.761 20.515zm-189.63-1.9233c-2.711-0.153-16.556-12.296-9.208-12.691 7.949-8.917 10.76-23.631 20.137-32.291 2.674-4.366 5.9019-8.53 7.8149-13.292 0.334-0.85 0.5409-1.9803 1.7959-2.0273 14.403-1.729-5.3093 21.897-9.0923 26.105 11.165 0.794 17.276-11.835 24.302-18.646 2.505-2.173 7.9888-2.3637 6.8408 2.4243-1.624 4.807-7.7409 8.2731-10.629 12.851-4.835 5.445-10.423 9.3044-17.855 10.003-0.639 0.061-0.98453 0.18241-0.74853 1.0664 1.133 5.983 4.5011 13.027 1.2861 18.785-3.013 5.654-8.826 6.6414-14.644 7.7124zm189.51-5.1372c0.64069 0.0295 0.9116-0.48551 1.3916-1.8018 7.122-11.686 0.65026-23.972-8.9487-31.894-4.202-3.279-14.502-15.931-17.304-6.0044 2.395 14.824 9.5701 31.699 23.184 39.114 0.77512 0.35438 1.2928 0.56824 1.6772 0.58594zm-189.34-0.59033c2.0762-0.12263 4.1349-1.2633 6.0264-3.2798 5.004-4.787 0.13312-13.021-0.90088-18.765-3.022 5.479-13.596 12.754-11.26 19.216 1.9635 2.056 4.0585 2.9512 6.1348 2.8286zm-35.2-23.021c-8.514-1.826-12.867-16.402-19.591-21.883-2.034-2.808-9.2236-5.4516-6.2886-9.5186 4.275-2.952 7.0588 4.652 10.115 6.731 2.137 2.14 3.8696 5.2217 6.2856 6.8657 8.36-3.916 14.318-12.797 20.402-19.879 4.413-6.914 12.631-10.267 18.272-15.725 0.776-1.507 1.9559-2.1088 3.6709-2.0698 3.769 0.085 3.7823 0.0252 3.7573 3.7822-4e-3 0.702 0.26642 1.4811-0.39258 2.0801-14.425 10.35-27.94 21.729-41.585 33.171-1.327 2.574 9.6241 9.7814 8.6631 13.277 0.145 3.441-0.42308 3.1415-3.3091 3.1685zm278.62-17.15c-3.4092-0.0688-6.9296-0.60125-9.7969-0.80713-10.136-1.568-17.206-8.3961-25.497-13.642-5.107-2.456-8.4857-7.4129-11.098-12.211-0.51-6.416-0.99341-15.014 7.8926-14.603 7.611 0.112 35.084 1.898 25.925 14.417-2.156 2.903-3.9988 8.8173-8.4448 7.9893-6.625-2.276 0.30404-8.2162 2.54-11.323-22.638-11.791-30.713-0.17044-7.4883 13.061 3.777 7.992 46.635 18.328 31.31 2.1226-0.749-0.313-1.2406-0.75072-0.78662-1.6157 1.287-2.017 3.5432 1.192 5.4712 0.73095 3.232 0.766 3.3517 5.8766 2.5767 8.7026-1.5456 6.1206-6.9215 7.2939-12.604 7.1792zm-310.22-42.976c-0.98339-2e-4 -1.8041-0.0826-2.2661-0.26074-27.469-7.551 23.506-35.626 28.871-12.828 1.471 16.027 27.398-4.6563 20.316-13.592-1.562-4.47-7.958 0.67844-10.689-3.0396-3.921-4.72 2.5482-7.0495 7.2012-6.1655 27.144 0.909 6.1199 42.664-12.29 34.017-4.192-1.968-6.907-3.8564-9.208-7.7754-1.686-2.307-6.9396-8.0255-11.703-7.3315-5.54 1.197-11.22 4.3523-12.256 10.57-0.162 0.976-0.28316 0.58039 8.0698 3.1714 5.5356 1.7168-1.784 3.2352-6.0454 3.2344zm342.42-10.54c-0.31608 0.0101-0.64637-0.0515-0.98584-0.19922-1.328-0.45-2.6681-0.32426-3.9551-0.69726-19.682 0.207-38.96-2.909-58.462-5.981-3.486 0.07-3.1418-2.6108-3.1538-5.1768 0.309-2.815 5.3871-0.72279 7.5161-1.3418v0.0366c14.708 0.039 29.151 3.9181 43.957 3.5801 5.371 0.58299 10.686 1.7066 16.096 1.8706 3.7863 0.98872 2.0432 7.8112-1.0122 7.9087zm-64.591-36.24c-1.1868 0.0174-1.9867-0.3008-2.2368-1.0708 0.1-4.138 5.2552-0.86862 6.9302-2.9326 15.735-10.07 32.329-18.788 48.073-28.783-21.407 1.675-42.707 1.9106-64.14 2.4536-4.846 1.491-6.0913-7.8081-1.2773-7.5791 25.194 0.40099 50.215-1.8306 75.497-1.1396 16.982 5.103-29.997 25.722-35.221 27.674-3.5117 1.3998-21.217 11.283-27.625 11.377zm-112.82-4.4209c-0.84841 9.7e-4 -1.7165-0.0596-2.5972-0.17432-11.54-2.345-8.009-22.758 4.21-19.758 8.895-2.043 9.7799 7.0458 9.1919 13.632-2.2224 4.5149-6.2233 6.295-10.805 6.3003zm-118.88-1e-3c-6.4427 0.0962-17.287-4.6336-21.467-4.8955-14.343-4.445-28.338-9.743-42.072-15.356-2.055 0.058-3.1235-1.1858-3.1245-3.2578-1.78-9.424 20.54-7.882 27.097-10.604 8.62-1.761 17.622-1.4664 25.979-4.0034 5.185 0.782 17.239-3.8789 20.615 0.18311-0.08 0.874-0.8595 1.4117-1.6875 1.1587-7.396 0.062-14.453 3.0886-21.844 4.0386-5.108 0.602-9.2512 3.9255-14.115 5.2485-6.153 1.811-12.283 1.9292-18.526 3.9492 17.104 7.39 36.73 11.582 53.597 16.147 1.6939 5.5395-0.58602 7.3339-4.4517 7.3916zm215.76-73.287c-2.1529-0.10023-2.891-4.1113 0.22998-3.9932 3.208-0.425 4.5554-4.1837 7.5454-5.1987 13.148-10.36 26.1-24.411 42.479-29.364 2.019 0.261 2.5213 0.45224 2.9253 2.5942 1.948 4.953 8.6084 8.5305 9.1304 13.835-1.195 11.089-10.54-6.1827-12.365-9.4717-6.033-0.075-12.229 7.6831-18.098 10.393-10.274 6.634-20.327 13.873-30.521 20.807-0.48031 0.30078-0.92699 0.417-1.3257 0.39844zm-202.52-1.8706c-6.3587-0.0471-14.126-3.7073-16.894-13.247-1.4-4.824 2.5494-8.7046 2.7334-13.37 0.713-18.08-15.336-24.586-18.066-16.066 1.873 2.478 5.877 5.2723 3.227 8.6953-10.441 7.713-18.843-21.651-0.65917-18.549 11.125-0.478 19.362 10.775 22.201 20.506 3.395 7.618-9.772 14.83-0.62696 24.242 1.583 1.629 7.13 4.84 12.019 1.147 0.821-0.94 0.29501-2.9323-0.81299-3.5933-2.636-0.685-1.4013-3.5791 0.80566-2.6821 10.095 7.0661 4.2482 12.978-3.9272 12.917zm177.53-22.875c-1.3512 0.0103-2.4931-0.27745-2.9092-1.4941-5e-3 -0.128-0.0824-0.36228-0.13037-0.36328-1.735-0.042-0.94314-1.3572-1.0151-2.1372-0.383-11.121 16.12-47.351 17.917-58.059 0.194-0.638 0.43877-1.2944 1.3638-1.2524 7.777-1.359 2.9022 5.2782 2.7012 9.6372-0.152 0.207-12.772 40.223-13.767 42.886 2.983-0.389 33.482-30.445 34.657-32.082 1.087-1.688 2.2179-4.4919 4.6099-3.5449 7.629 9.288-16.649 25.885-19.378 30.095-0.713 1.886-15.745 15.443-18.898 16.134-1.3303-0.34031-3.4131 0.1669-5.1504 0.18017zm-136.46-5.0713c-1.3796 8e-3 -2.818-0.27943-4.3037-0.94043-3.627-3.033-10.544-6.4008-8.4551-11.757-4.965-10.683-11.187-22.553-10.746-34.787-2.476-15.657 13.235-21.852 21.696-8.4214 6.724 14.491 18.556 34.479 12.39 49.888-2.8252 3.2992-6.4419 5.9928-10.581 6.0176zm-0.0967-5.9209c2.9195 0.0265 5.7736-2.009 7.1294-6.6885-1.327-8.278-11.434-50.77-22.685-43.528-7.087 13.075 4.1131 28.111 7.0151 41.13 0.92532 5.6109 4.7865 9.0523 8.54 9.0864zm55.792-7.9204c-7.1665-0.062-12.649-9.2019-12.765-16.436-0.094-10.591-5.8016-46.657 9.7954-46.831 6.469-2.21 19.775 11.822 7.4751 11.096-1.225-0.277-1.8427-1.3607-1.9497-2.6367-0.312-1.928-3.5319-2.1134-5.0449-3.0894-6.731 5.009-5.421 19.75-5.606 28.03 0.038 2.621 0.40885 21.669 5.9648 22.794 3.767 0.763 5.9193-2.3175 9.0293-0.58447 1.572 0.876-0.57033 5.0283-1.7153 6.1142-1.7878 1.0875-3.5303 1.5568-5.1841 1.5425zm46.5-1.7124c-0.28129-1e-3 -0.57952-0.0528-0.89649-0.15967-4.853-1.611 1.7782-25.482 1.4502-31.499 1.528-4.154 0.34437-27.94 6.2974-26.329 7.278-1.472-1.5615 27.154-1.0605 32.499-1.4802 4.6694-0.071 25.517-5.7905 25.488z" clip-path="url(#clipPath949)"/>
 </g>
</svg>
