<?xml version="1.0" encoding="UTF-8" standalone="no"?>
<!-- Created with Inkscape (http://www.inkscape.org/) -->

<svg
   width="240"
   height="240"
   viewBox="0 0 63.5 63.5"
   version="1.1"
   id="svg1"
   inkscape:version="1.3 (0e150ed6c4, 2023-07-21)"
   sodipodi:docname="grid-item-verbos-01.svg"
   xmlns:inkscape="http://www.inkscape.org/namespaces/inkscape"
   xmlns:sodipodi="http://sodipodi.sourceforge.net/DTD/sodipodi-0.dtd"
   xmlns="http://www.w3.org/2000/svg"
   xmlns:svg="http://www.w3.org/2000/svg">
  <sodipodi:namedview
     id="namedview1"
     pagecolor="#ffffff"
     bordercolor="#666666"
     borderopacity="1.0"
     inkscape:showpageshadow="2"
     inkscape:pageopacity="0.0"
     inkscape:pagecheckerboard="0"
     inkscape:deskcolor="#d1d1d1"
     inkscape:document-units="mm"
     inkscape:zoom="1.5030086"
     inkscape:cx="-26.945953"
     inkscape:cy="-8.3166522"
     inkscape:window-width="3440"
     inkscape:window-height="1400"
     inkscape:window-x="2560"
     inkscape:window-y="0"
     inkscape:window-maximized="1"
     inkscape:current-layer="layer1" />
  <defs
     id="defs1" />
  <g
     inkscape:label="Capa 1"
     inkscape:groupmode="layer"
     id="layer1"
     transform="translate(-73.025002,-116.68124)">
    <rect
       x="73.025002"
       y="116.68124"
       class="st8"
       width="63.5"
       height="63.5"
       id="rect28"
       style="fill:#2a6e6d;stroke:none;stroke-width:0.264033" />
    <g
       id="g37"
       transform="matrix(0.26403327,0,0,0.26403327,-19.888305,-357.25847)">&#10;				<path
   class="st9"
   d="m 439.3,1922.9 c 6.3,-2.1 12.7,-4.2 19.1,-6.2 2.7,-0.8 5.4,-0.8 7.5,0.8 -7.2,1.9 -14.4,3.7 -21.5,5.7 -1.6,0.4 -3.5,1 -4.5,2.2 -3.9,4.6 -7.7,9.4 -11.2,14.3 -0.8,1.1 -0.4,3.1 0.4,4.8 3.4,-4 6.7,-8.1 10.3,-11.9 1.9,-2 4.1,-3.9 6.5,-5.3 4,-2.3 8.2,-4.3 12.4,-6.3 2.2,-1.1 4.5,-2 6.1,0.5 -10.1,3.5 -20.3,6.6 -26.7,16.2 -2.6,4 -2.8,4.5 -1.2,9.5 1.4,-1.7 2.7,-3.1 3.8,-4.6 4.2,-5.7 8.8,-9.8 17,-9.4 4.8,0.2 8.9,0.6 13.2,2.8 2.8,1.4 6.2,1.5 9.4,2.3 1.5,0.4 3,0.8 4.4,1.5 4.4,2.2 4.8,2 6.9,-2.4 0.2,-0.4 0.6,-0.8 0.8,-1.2 0.4,0.1 0.8,0.2 1.1,0.3 -0.5,1.8 -1.1,3.6 -1.7,5.7 14.8,17.9 23.9,39.2 34.3,59.9 -0.4,0.3 -0.9,0.5 -1.3,0.8 -1,-1.7 -2.1,-3.5 -3,-5.2 -7.5,-13.9 -15.1,-27.6 -22.3,-41.7 -3.6,-7.2 -9.2,-8.6 -16.3,-7.4 -1,0.2 -2.1,0.1 -3.1,0.2 3,6.2 3,6.2 -4.4,5.9 -1.5,1.9 -2.3,4.1 -3.5,4.3 -1.7,0.3 -3.6,-0.8 -5.4,-1.3 -0.8,2.5 -1,5 -4.6,3.6 -0.7,-0.3 -2.8,1.3 -3.4,2.5 -4,8 -4.3,16.5 -1.6,24.9 2.5,7.6 1.5,15.1 0.3,22.6 -0.1,0.5 -0.4,0.9 -1.5,1.3 0,-1.4 -0.2,-2.8 0,-4.1 1.4,-7 1.1,-13.7 -0.9,-20.6 -2.6,-9 -1.7,-17.9 2.6,-26.4 -7.9,-2.7 -15.3,-6.4 -23.9,-5.4 -5.3,0.6 -9.2,2.9 -12.2,7.2 -4.8,6.7 -7.4,14.1 -8.4,22.3 -0.5,4.1 -1.6,8.1 -2.4,12.2 -0.2,0.8 -0.7,1.4 -1.1,2.2 -0.5,-0.4 -0.9,-0.6 -0.8,-0.7 2.5,-10.4 2.3,-21.4 7.6,-31 2.8,-5.1 5.7,-10.2 11.3,-12.9 -0.7,-1.4 -1.4,-2.7 -2.1,-4.1 0.2,-0.1 0.4,-0.2 0.6,-0.4 1.6,1.1 3.2,3 4.9,3 2.7,0 5.7,-0.7 7.9,-2.2 4.3,-2.7 5,-2.9 9.1,0.4 2.6,2.1 5.3,4.1 8,6 0.5,0.3 1.2,0.3 1.8,0.5 0.3,-1.9 0.6,-3.7 0.8,-5.4 -4.4,-4.1 -8.9,-8.3 -11.9,-11 -4.1,3.9 -8,7.7 -12,11.6 -0.8,-0.5 -1.6,-1 -2.5,-1.5 0.1,-2.4 0.3,-4.9 0.4,-7.5 -2,1.3 -3.8,2.5 -5.6,3.6 -0.7,0.4 -1.5,0.5 -2.3,0.8 -0.1,-0.8 -0.3,-1.7 -0.2,-2.5 0.2,-1.2 0.7,-2.4 1.2,-4.2 -4.2,2.3 -6.1,5.7 -7.7,9.3 -4.9,11.7 -9.9,23.3 -14.8,35 -0.4,1 -1,1.9 -1.6,2.9 -0.3,-0.1 -0.7,-0.2 -1,-0.4 0.3,-1.2 0.5,-2.5 1,-3.6 5,-11.9 10,-23.8 15.2,-35.7 1.3,-2.9 3.4,-5.4 4.7,-7.3 0.1,-2.1 -0.3,-3.7 0.3,-4.6 2.7,-3.7 5.8,-7.2 8.6,-10.8 0.6,-0.8 1.1,-1.9 1.2,-2.9 0.6,-14.5 5.2,-27.6 13.4,-39.5 12.3,-17.8 36.8,-26.2 56.9,-19.6 10.4,3.4 17,11.2 22.9,19.6 4,5.7 7.2,11.9 10.3,18.2 5.6,11.3 -2.7,14.2 16.4,34.3 -2.7,23.6 13.3,12.3 1.4,39.4 -2.1,5.6 -3.5,5.7 -7.1,1.1 -11.1,-14.3 -22.3,-28.6 -33.2,-43 -4.7,-6.2 -10.7,-10 -18.1,-11.7 -9.2,-2.1 -18.5,-3.6 -26.9,-8.4 -1.3,-0.7 -3.3,-0.8 -4.9,-0.4 -5.7,1.5 -11.5,3.1 -17.1,5 -2.2,0.8 -4.2,2.4 -6.2,3.6 -5.3,4.7 -12.6,7.4 -13.7,15.9 4.5,-5.6 9.2,-10.8 13.8,-16 z m 28.2,26.2 c -2.9,-3.7 -6.1,-8.3 -9.9,-12.3 -1.2,-1.3 -4.2,-1.5 -6.2,-1.2 -1.7,0.2 -3.3,1.8 -4.9,2.8 5.3,7.4 12.3,12.4 19.1,16.7 0.7,-2.1 1.2,-3.8 1.9,-6 z m 7,3 c -1.7,-2.8 -1,-4.7 1.8,-6.1 -4.7,-5.3 -7.7,-12.6 -17.2,-10.8 4.9,6.2 9,12.5 15.4,16.9 z m -7.5,-62.6 c -0.3,-0.1 -0.6,-0.2 -0.9,-0.3 -2.6,7.7 -5.2,15.4 -7.8,23.1 0.6,0.2 1.1,0.4 1.7,0.6 2.3,-7.9 4.6,-15.7 7,-23.4 z m 6.5,49.2 c 3.1,5.9 4.6,7.3 7.6,7.4 0,-1.7 0,-3.3 0,-5.4 -2.2,-0.6 -4.7,-1.2 -7.6,-2 z"
   id="path34"
   style="fill:#87b3a2" />
&#10;				<g
   id="g36">&#10;					<path
   class="st9"
   d="m 498.7,1828.9 c 3.5,0.4 7,0.5 10.4,1.1 3.4,0.5 6.3,2.4 8.9,4.6 1.5,1.2 1.7,3 0.8,4.8 -0.8,1.6 -2.2,2.6 -3.8,3.2 -6.2,2.2 -12.5,3.4 -19,2.9 -2.8,-0.2 -5.6,-0.6 -8.4,-1.1 -1.4,-0.3 -2.9,-0.9 -4.1,-1.8 -2.1,-1.5 -2.6,-3.5 -1.6,-5.9 1.6,-3.7 4.7,-5.5 8.3,-6.8 2.7,-1 5.6,-0.9 8.5,-1 z m 6.3,14 c 1.8,-0.3 3.3,-0.5 4.8,-1 2,-0.6 4,-1.2 5.9,-2.1 2.1,-1.1 2,-3.3 -0.1,-4.5 -1.5,-0.9 -3,-1.7 -4.6,-2.5 -2,-1 -4.1,-1.1 -6.3,-1.1 2.3,3.6 2.1,7.3 0.3,11.2 z m -9.7,-11.8 c -0.5,-0.1 -0.7,-0.1 -0.9,-0.1 -3.4,0.4 -6.6,1.5 -9.1,4 -0.7,0.7 -1.3,1.7 -1.7,2.6 -0.6,1.5 -0.1,2.5 1.2,3.4 2.5,1.6 5.3,1.5 8.3,2 -1.4,-2.1 -1.4,-4.1 -0.9,-6.2 0.5,-2.1 1.5,-3.9 3.1,-5.7 z"
   id="path35"
   style="fill:#87b3a2" />
&#10;					<path
   class="st9"
   d="m 455.5,1829 c 2.4,0.2 6.1,0.5 9.8,1 1.5,0.2 3,1 4.4,1.7 1.1,0.5 2.1,1.1 3.2,1.7 3.6,2.2 3.6,6.5 -0.3,8.4 -1.9,1 -4.1,1.6 -6.2,2.1 -2.7,0.7 -5.5,1.2 -8.2,1.5 -4.9,0.5 -9.8,-0.1 -14.7,-1.1 -1.5,-0.3 -2.9,-1.1 -4.2,-2 -1.7,-1.2 -2.1,-3.6 -1.3,-5.5 1.3,-3.3 4.1,-5.1 7.2,-6.4 2.8,-1.3 5.9,-1.4 10.3,-1.4 z m 5.9,13.8 c 1.9,-0.4 3.7,-0.6 5.4,-1.1 1.7,-0.5 3.5,-1.1 5.1,-1.9 1.9,-1 2,-3.2 0.2,-4.3 -1.7,-1 -3.4,-1.9 -5.2,-2.8 -1.8,-0.9 -3.8,-0.9 -5.9,-0.9 2.5,3.6 1.9,7.2 0.4,11 z m -12.3,0.4 c 0.1,-0.1 0.2,-0.3 0.3,-0.4 -1.3,-1.4 -1.5,-3.1 -1.2,-4.8 0.3,-2.1 1.1,-4.1 2.4,-5.8 0.2,-0.3 0.4,-0.6 0.8,-1.1 -2.9,0.1 -5.5,0.8 -7.7,2.3 -1.2,0.8 -2.4,1.8 -3.2,3 -1.6,2.2 -0.9,4.4 1.7,5.2 2.2,0.8 4.6,1.1 6.9,1.6 z"
   id="path36"
   style="fill:#87b3a2" />
&#10;				</g>
&#10;			</g>
  </g>
</svg>
