<?xml version="1.0" encoding="UTF-8" standalone="no"?>
<!-- Created with Inkscape (http://www.inkscape.org/) -->

<svg
   width="21.166666mm"
   height="21.166664mm"
   viewBox="0 0 21.166666 21.166664"
   version="1.1"
   id="svg1"
   inkscape:version="1.3 (0e150ed6c4, 2023-07-21)"
   sodipodi:docname="portada-icono-2.svg"
   xmlns:inkscape="http://www.inkscape.org/namespaces/inkscape"
   xmlns:sodipodi="http://sodipodi.sourceforge.net/DTD/sodipodi-0.dtd"
   xmlns="http://www.w3.org/2000/svg"
   xmlns:svg="http://www.w3.org/2000/svg">
  <sodipodi:namedview
     id="namedview1"
     pagecolor="#ffffff"
     bordercolor="#666666"
     borderopacity="1.0"
     inkscape:showpageshadow="2"
     inkscape:pageopacity="0.0"
     inkscape:pagecheckerboard="0"
     inkscape:deskcolor="#d1d1d1"
     inkscape:document-units="mm"
     inkscape:zoom="1.0627876"
     inkscape:cx="39.989176"
     inkscape:cy="-224.40984"
     inkscape:window-width="3440"
     inkscape:window-height="1440"
     inkscape:window-x="2560"
     inkscape:window-y="0"
     inkscape:window-maximized="0"
     inkscape:current-layer="layer1" />
  <defs
     id="defs1" />
  <g
     inkscape:label="Capa 1"
     inkscape:groupmode="layer"
     id="layer1"
     transform="translate(-94.456249,-207.96249)">
    <path
       class="st7"
       d="m 94.589967,208.01393 c 5.161878,-0.28288 8.526083,1.87731 10.426483,6.58344 0.20545,-0.36003 0.33385,-0.48862 0.38521,-0.64292 1.59222,-3.88319 4.85371,-5.99196 9.01403,-5.99196 0.97587,0 1.207,0.41147 1.207,1.26011 0.0257,3.83177 -2.1572,7.25208 -5.67549,8.79508 -0.30818,0.12858 -0.61635,0.3086 -1.07861,0.56576 2.51674,0.90009 4.54553,2.26307 5.52141,4.55184 0.64203,1.51728 0.84747,3.24029 1.15564,4.88615 0.15409,0.79722 -0.30817,1.0801 -1.10427,1.10581 -4.0576,0.0772 -7.52453,-2.18591 -9.03971,-5.96624 -0.0771,-0.18002 -0.15409,-0.33432 -0.30817,-0.66864 -0.20545,0.33432 -0.38521,0.54006 -0.48794,0.74578 -1.51518,3.70319 -4.956429,5.94054 -8.988343,5.8891 -0.898834,0 -1.129963,-0.36003 -1.155644,-1.18296 -0.128405,-3.78034 2.08016,-7.35495 5.547087,-8.84651 0.30817,-0.12858 0.64203,-0.28288 1.20702,-0.54004 -4.828033,-1.98018 -6.985236,-5.4262 -6.625703,-10.5438 z"
       id="path99"
       style="fill:#3e618c;stroke-width:0.256987" />
  </g>
</svg>
