<?xml version="1.0" encoding="UTF-8" standalone="no"?>
<!-- Created with Inkscape (http://www.inkscape.org/) -->

<svg
   width="63.5mm"
   height="63.5mm"
   viewBox="0 0 63.5 63.5"
   version="1.1"
   id="svg1"
   inkscape:version="1.3 (0e150ed6c4, 2023-07-21)"
   sodipodi:docname="portada-verbos-04.svg"
   xmlns:inkscape="http://www.inkscape.org/namespaces/inkscape"
   xmlns:sodipodi="http://sodipodi.sourceforge.net/DTD/sodipodi-0.dtd"
   xmlns="http://www.w3.org/2000/svg"
   xmlns:svg="http://www.w3.org/2000/svg">
  <sodipodi:namedview
     id="namedview1"
     pagecolor="#ffffff"
     bordercolor="#666666"
     borderopacity="1.0"
     inkscape:showpageshadow="2"
     inkscape:pageopacity="0.0"
     inkscape:pagecheckerboard="0"
     inkscape:deskcolor="#d1d1d1"
     inkscape:document-units="mm"
     inkscape:zoom="1.0627876"
     inkscape:cx="120.90845"
     inkscape:cy="119.96753"
     inkscape:window-width="3440"
     inkscape:window-height="1400"
     inkscape:window-x="2560"
     inkscape:window-y="0"
     inkscape:window-maximized="1"
     inkscape:current-layer="layer1" />
  <defs
     id="defs1" />
  <g
     inkscape:label="Capa 1"
     inkscape:groupmode="layer"
     id="layer1"
     transform="translate(-73.025002,-116.68124)">
    <rect
       x="73.025002"
       y="116.68124"
       class="st22"
       width="63.5"
       height="63.5"
       id="rect34"
       style="fill:#d180b8;stroke-width:0.264033" />
    <g
       id="g85"
       transform="matrix(0.26403327,0,0,0.26403327,-210.91638,-357.25847)">&#10;				<g
   id="g84">&#10;					<g
   id="g75">&#10;						<g
   id="g74">&#10;							<path
   class="st7"
   d="m 1235.4,1915.6 c 1.5,0.1 3.1,0.3 4.6,0.3 2.1,0 3,1.1 2.9,3.1 -0.2,2.3 -0.3,4.7 -0.9,7 -3.9,14.7 -5.8,29.7 -6.8,44.9 -0.6,9.3 -2,18.6 -3,28 -0.2,2 -1.2,3.1 -3.3,3.1 -9,0.2 -17.9,0.6 -26.9,0.6 -7.4,0 -7.9,-0.8 -7.7,-8 0.4,-16.3 0.6,-32.6 1.3,-48.9 0.4,-8.1 1.8,-16.2 2.8,-24.3 0.2,-1.8 1.1,-2.7 2.9,-3 0.6,-0.1 1.5,-0.8 1.6,-1.4 0.9,-4.6 1.7,-9.3 2.3,-14 0.1,-1.2 -0.5,-2.7 -1.3,-3.7 -2.2,-2.8 -3.5,-5.8 -3.6,-9.4 -0.2,-13.6 0.5,-27.1 2.8,-40.4 0.5,-2.8 1.4,-5.5 2.5,-8.2 1.7,-4 5.5,-4.4 8.2,-0.9 0.2,0.3 0.4,0.5 0.6,0.8 3.6,-4.1 5.7,-4.1 10,0.2 1.5,-1.6 3,-4.1 5.5,-2.7 1.8,1 3.1,3.1 4.5,4.5 1.6,-0.5 3.5,-1.8 5.1,-1.5 1.8,0.3 3.5,1.9 4.8,3.3 5,5.4 7.7,12.1 7.5,19.4 -0.3,9.2 -1.1,18.4 -2.4,27.5 -1,6.6 -5.5,11.7 -9.9,16.5 -1.8,1.9 -3,4.3 -4.5,6.5 0,0.3 0.2,0.5 0.4,0.7 z m 0,-46 c 0.1,-0.1 0.4,-0.9 0.7,-1.7 1.2,-2.9 2.2,-5.8 3.6,-8.5 0.5,-0.9 1.9,-1.3 2.9,-1.9 0.2,1.2 0.5,2.4 0.6,3.6 0,0.3 -0.2,0.6 -0.4,0.9 -1.3,2.9 -2.4,5.9 -3.9,8.7 -1,1.9 -2.4,3.5 -3.7,5.3 -0.2,0.3 -0.2,0.8 -0.5,1 -0.7,0.6 -1.5,1.5 -2.3,1.6 -0.9,0.1 -1.9,-0.4 -2.6,-1 -0.6,-0.5 -0.6,-1.5 -1,-2.2 -1.4,-3.2 -1.6,-7.1 -5.8,-8.3 -0.6,-0.2 -1.1,-1.2 -1.5,-1.8 -0.6,-0.8 -1.1,-1.7 -1.6,-2.6 0,5.4 0.6,10.5 2.8,15.3 0.4,0.9 1.1,1.6 1.7,2.3 2.4,2.6 2.5,3.7 0.2,6.5 -0.6,0.7 -1.2,1.3 -1.7,2.1 -3.2,4.4 -3.2,7.7 -0.2,12.2 0.4,0.6 0.8,1.8 0.4,2.2 -0.4,0.6 -1.5,1 -2.3,1 -3.1,0.1 -5,-1.9 -5.4,-5.4 -0.7,-6.2 1,-11.6 5.4,-15.3 -1.9,-4.6 -3.6,-8.9 -5.2,-12.7 -2.3,-0.3 -4.7,-0.2 -6.7,-1 -2.9,-1 -4.7,-0.3 -4.9,2.7 -0.2,5.3 -0.6,10.6 -0.3,15.9 0.2,2.7 1.1,5.8 2.8,7.8 2.2,2.6 3,5.4 2.9,8.5 -0.2,4.1 -0.6,8.2 -0.9,12.5 0.2,0.1 0.5,0.2 0.8,0.2 6.3,-0.2 12.5,-0.5 18.8,-0.9 0.6,0 1.5,-1.1 1.7,-1.9 1,-4.2 3.1,-7.6 6.3,-10.5 5.9,-5.3 9.4,-11.8 9.3,-20 0,-2.7 0.4,-5.4 0.8,-8 0.8,-6 1.4,-12 -0.5,-17.9 -1.4,-4.6 -4,-8.4 -7.4,-11.9 -0.5,0.5 -0.8,0.8 -0.9,1.2 -1.6,4.6 -3.2,9.2 -4.8,13.8 -0.1,0.3 0,0.7 0.1,0.9 0.9,2.5 1.9,5 2.7,7.3 z m -35,108.8 c 3.4,-0.6 6.5,-1.2 9.6,-1.6 6,-0.7 12,-1.3 17.9,-2 0.8,-0.1 2.2,-0.7 2.3,-1.2 0.4,-3.7 0.5,-7.4 0.7,-11.1 -3.2,0.2 -6.1,0.2 -9,0.6 -6.4,0.9 -12.9,1.9 -19.3,3 -0.8,0.1 -2,1 -2.1,1.5 -0.2,3.5 -0.1,7 -0.1,10.8 z m 29.6,0.2 c -8.7,0.9 -16.8,1.7 -24.8,2.7 -5,0.6 -4.9,0.7 -5.8,5.7 -0.3,1.7 0.2,2.4 1.8,3 8.8,3.1 17.6,2.2 26.6,1.2 0.6,-0.1 1.5,-0.7 1.5,-1.1 0.2,-3.8 0.4,-7.4 0.7,-11.5 z m -28.7,-31.2 c 7.9,-3.3 15.8,-3.4 23.7,-3.3 2.2,0 4.3,-0.4 6.5,-0.9 0.6,-0.1 1.4,-0.8 1.5,-1.4 0.6,-2.7 1,-5.5 1.5,-8.5 -1.1,0 -1.9,0 -2.7,0 -8.7,0.4 -17.4,0.9 -26.1,1.4 -0.7,0 -1.5,0 -2.2,0.2 -0.5,0.2 -1.3,0.8 -1.3,1.3 -0.3,3.6 -0.5,7.2 -0.9,11.2 z m -1.1,14.5 c 3,-0.5 5.5,-1 8.1,-1.4 6.9,-0.9 13.8,-1.7 20.8,-2.7 0.9,-0.1 2.3,-0.8 2.4,-1.4 0.4,-2.7 0.5,-5.4 0.7,-8.4 -10.3,1.2 -20.1,2.2 -30,3.4 -0.4,0.1 -1.1,0.7 -1.2,1.2 -0.3,3 -0.5,6.1 -0.8,9.3 z m 37.5,-41.1 c -4.1,0 -7.8,-0.1 -11.5,0 -6.6,0.2 -13.2,0.5 -19.8,0.9 -1,0.1 -2.6,0.9 -2.8,1.6 -0.6,2.1 -0.6,4.4 -0.8,6.7 0.7,0.1 1,0.2 1.3,0.2 10.1,-0.5 20.2,-1 30.2,-1.6 0.7,0 1.7,-0.9 2,-1.7 0.6,-1.6 0.8,-3.6 1.4,-6.1 z m -9.3,-77.4 c -1.4,4.1 -2.5,7.6 -3.7,11 -1.1,3 1.4,8.5 4.6,10 -0.1,-6.8 4.8,-13.6 -0.9,-21 z m -9.5,-0.5 c -1.7,4.4 -3.4,8.4 -5,12.5 -0.1,0.3 -0.1,0.9 0,1.1 2.5,3.6 0.5,6.4 -1.9,9.7 1.1,-0.2 2.1,-0.1 2.3,-0.4 0.7,-1.2 1.1,-2.6 1.5,-3.9 0.5,-1.7 0.7,-3.5 1.5,-5 0.4,-0.8 1.8,-1 2.5,-1.7 2.8,-3.1 2.4,-9 -0.9,-12.3 z m -10.8,15.9 c 0.9,-2.5 1.5,-5.3 2.8,-7.8 1.7,-3.2 -0.2,-5.5 -1.3,-8.1 -2.9,5.1 -4.4,10.3 -1.5,15.9 z m 5.7,138.4 c -4.9,-0.9 -9.6,-1.7 -14.5,-2.6 0.1,0.8 0.1,1.7 0.2,2.6 4.9,0 9.5,0 14.3,0 z"
   id="path73"
   style="fill:#3e618c" />
&#10;						</g>
&#10;					</g>
&#10;					<g
   id="g77">&#10;						<g
   id="g76">&#10;							<path
   class="st7"
   d="m 1167.3,1849.3 c 2.2,-1.1 2.4,-2.6 1.8,-4.4 -0.8,-2.4 -1.5,-4.8 -2.2,-7.1 -0.4,-0.2 -0.5,-0.3 -0.7,-0.3 -1.1,0 -2.9,0.4 -3,0 -0.5,-1 -0.6,-2.5 -0.3,-3.6 0.6,-2.2 2.5,-3.1 4.7,-3.1 2.1,0 3.1,1.3 3.6,3.1 0.9,3.1 1.6,6.2 2.6,9.2 0.4,1.2 1.5,2.1 2.1,3.3 0.6,1.1 1.3,2.3 1.2,3.4 -0.1,1.9 0.2,3.3 2.3,4.4 0.2,-1.4 0.4,-2.8 0.4,-4.1 0,-3.7 0.1,-7.5 0,-11.2 -0.1,-3.2 -0.9,-3.5 -3.5,-1.8 -0.1,0.1 -0.2,0.2 -0.4,0.3 -0.7,0.2 -1.6,0.6 -1.9,0.4 -0.5,-0.4 -1,-1.3 -1,-2 0,-2.2 2.2,-4.2 4.9,-4.7 2.6,-0.5 4.6,0.4 5.6,2.7 0.6,1.3 0.9,2.8 1.3,4.2 1.5,-1 2.7,-2.1 4.2,-2.8 3.7,-1.6 6.2,-0.4 7.2,3.4 1.2,4.9 1.4,9.8 0,14.8 -0.2,0.7 -0.3,1.6 -0.8,2 -2.9,2.8 -2.4,5.9 -1.6,9.4 1,4.2 1.9,8.4 2.4,12.7 0.5,4.4 1,8.9 0.3,13.1 -0.5,2.8 -2.8,5.5 -4.9,7.6 -3.7,3.7 -4.8,8 -4.9,12.9 -0.2,22.8 -0.2,45.5 -0.6,68.3 -0.1,6.1 -1.3,12.1 -2.1,18.2 -0.3,2.3 -1.9,3.2 -3.9,3.3 -11.7,0.8 -23.5,0.8 -35.1,-1.3 -2.7,-0.5 -3.9,-1.7 -3.6,-4.6 0.6,-4.7 1.7,-9.4 2.7,-14.1 2.9,-14 5.9,-28.1 8.7,-42.1 1.9,-9.8 3.6,-19.7 5.4,-29.6 1.3,-7.3 -0.2,-14 -3.9,-20.4 -3.1,-5.5 -6.5,-11.1 -8.4,-17.1 -2.7,-8.3 -5.6,-16.8 -3,-25.8 1.3,-4.7 3.6,-8.7 7.5,-11.7 4.5,-3.4 8.3,-2.8 10.8,2.3 1.9,3.8 3.3,7.8 5,11.7 0.4,0.1 0.8,0.5 1.1,1.1 z m -11.9,101 c 0.2,0.2 0.3,0.4 0.5,0.4 3.2,1.5 4.3,3.4 3.9,6.5 -0.3,2.4 -2,4 -5.1,4.4 -1.6,0.2 -1.9,1.1 -2.2,2.4 -1.4,6.6 -2.8,13.2 -4.2,19.8 -0.1,0.7 -0.2,1.4 -0.3,2.1 2.3,-0.1 4.9,-0.8 5.4,2.1 0.4,2 0.1,4.1 0.1,6.4 7.4,0.2 14.9,0.4 22.5,0.6 3.4,0.1 3.5,0 3.4,-3.7 -0.3,-0.1 -0.7,-0.2 -1.1,-0.3 -3.3,-0.8 -4.4,-2.3 -4,-5.3 0.4,-3.4 2.1,-5.2 5.3,-5.1 1.8,0 1.9,-1 1.8,-2.2 -0.1,-4 -0.4,-8 -0.5,-12 -0.1,-1.6 -1.1,-1.6 -2.3,-1.9 -1.3,-0.3 -3.1,-0.7 -3.5,-1.6 -0.7,-1.4 -0.9,-3.5 -0.5,-5 0.6,-2.2 1.7,-4.7 4.5,-4.8 1.8,-0.1 2.2,-0.7 2.3,-2.3 0,-5.3 0.2,-10.6 0.3,-15.9 0,-0.8 -0.1,-1.7 -0.2,-2.6 -0.7,0 -1.1,0 -1.5,0 -4.1,-0.1 -6.5,-2.1 -6.4,-5.4 0.1,-3.1 2.7,-5 6.7,-4.8 0.5,0 1.5,-0.7 1.5,-1.2 0.1,-2.7 0.1,-5.5 0.1,-8.3 -0.7,0 -1.1,-0.1 -1.4,0 -6.1,1.3 -12.3,2.7 -18.4,4.1 -0.4,0.1 -0.9,0.6 -1.1,1.1 -0.4,1.2 -0.6,2.5 -1,4 2.7,0 4.2,1.3 4.8,3.7 0.6,2.2 1.3,4.4 -0.7,6.2 -2,1.8 -3.7,0.2 -5.6,-1.1 -1.2,6.8 -2.1,13.3 -3.1,19.7 z m 6.7,-94 c 0.3,0 0.6,0 0.9,0 0.3,-0.9 1,-2 0.7,-2.7 -2.1,-5.1 -4.2,-10.2 -6.6,-15.2 -1.3,-2.7 -2.9,-2.8 -4.9,-0.6 -5.5,6.1 -7,13.1 -4.9,20.9 2.8,10.5 6.4,20.7 12.7,29.7 1.4,2 2.3,4.6 2.6,7 0.6,4.8 0.6,9.6 0.8,14.5 5.7,-1.3 11.9,-2.6 18.1,-4.1 0.7,-0.2 1.5,-1.3 1.7,-2.1 1,-3.8 3.1,-6.8 6.2,-9.1 2.5,-1.9 3.8,-4.5 3.4,-7.7 -1,-8 -2.1,-16 -3.2,-23.9 -0.1,-0.5 -0.8,-1.2 -1.2,-1.2 -2.8,0.4 -3.8,-1.3 -4.2,-3.1 -1.5,1.2 -2.9,3.2 -4.5,3.4 -1.6,0.2 -3.4,-1.3 -5.2,-2.1 -1.2,2.6 -2.6,5.5 -4.1,8.8 1.4,0 2.4,0 3.3,0 8.2,-0.2 12.6,3.5 13.2,11.7 0.3,4.1 1.4,8.5 -1.3,12.1 -2.1,2.8 -4.9,5.3 -7.5,7.7 -0.5,0.5 -2.2,0.4 -2.7,-0.1 -0.5,-0.5 -0.5,-2.1 0,-2.7 1,-1.4 2.6,-2.5 3.7,-3.8 1.4,-1.7 3.4,-3.4 3.6,-5.3 0.3,-3.5 -0.1,-7.2 -0.9,-10.6 -0.7,-3.2 -2.8,-4.4 -6.1,-4.5 -1.7,0 -3.4,0 -5.1,0 -4.3,0 -5.4,-1.6 -4,-5.7 0.3,-0.8 0.7,-1.7 1,-2.5 1.6,-3.6 3.3,-7.1 4.7,-10.7 0.3,-0.9 -0.1,-2.1 -0.2,-3.1 -0.9,0.5 -2,0.8 -2.6,1.6 -2.6,3.2 -5,6.6 -7.8,9.7 -1.2,1.3 -3,2.2 -4.6,3 -0.5,0.2 -1.7,-0.4 -2.1,-1 -0.2,-0.3 0.4,-1.4 0.8,-2 0.2,-0.4 0.8,-0.5 1.2,-0.8 1.9,-0.9 2.1,-1.9 1,-3.8 -2.2,-3.6 -4.1,-7.4 -5.9,-11.2 -0.4,-0.8 0.3,-2 0.5,-3 1,0.3 2.3,0.3 2.9,1 1.1,1.2 1.7,2.7 2.5,4.2 1.6,2.2 2.8,4.7 4.1,7.3 z m 23.3,-7.5 c 1.6,1.2 3.1,1.8 3.6,2.9 0.6,1.1 0.4,2.7 0.6,4.3 3.5,-3.1 4.5,-13.2 1.9,-17.5 -2,1.1 -4,2.3 -6.1,3.5 0,2.3 0,4.9 0,6.8 z"
   id="path75"
   style="fill:#3e618c" />
&#10;						</g>
&#10;					</g>
&#10;					<g
   id="g78">&#10;						<path
   class="st7"
   d="m 1263.2,1846.7 c -0.9,-2.1 -1.8,-4.1 -2.6,-6.1 -2.7,0.8 -5.2,1.6 -7.7,2.3 -0.2,-0.2 -0.4,-0.4 -0.7,-0.6 0.8,-1.8 1.5,-3.6 2.3,-5.4 -1.6,-0.4 -3.2,-0.9 -4.9,-1.3 -0.1,-0.3 -0.1,-0.7 -0.2,-1 2.1,-0.9 4.2,-1.8 6.7,-2.7 -0.6,-1 -1.4,-2 -1.9,-3.1 -0.3,-0.7 -0.4,-1.6 -0.5,-2.4 0.8,0 1.7,-0.1 2.5,0.1 1.2,0.3 2.2,0.9 3.3,1.3 1.1,-2.5 2.1,-4.9 3.1,-7.3 0.3,0 0.7,0 1,0.1 0.7,2.3 1.4,4.5 2.2,6.9 1.9,-0.9 3.9,-1.7 5.8,-2.6 0.2,0.2 0.4,0.4 0.6,0.6 -0.9,1.8 -1.8,3.6 -2.8,5.5 2.1,0.4 4.4,0.8 6.7,1.1 0,0.3 0.1,0.7 0.1,1 -2.1,0.9 -4.2,1.8 -6.5,2.8 1.5,1.9 3.1,3.7 4.6,5.6 -0.2,0.3 -0.3,0.6 -0.5,0.9 -2.3,-0.7 -4.6,-1.3 -6.9,-2 -1,2.1 -2.1,4.3 -3.1,6.4 0,-0.1 -0.3,-0.1 -0.6,-0.1 z"
   id="path77"
   style="fill:#3e618c" />
&#10;					</g>
&#10;					<g
   id="g79">&#10;						<path
   class="st7"
   d="m 1138.9,1915.7 c -0.7,-1.6 -1.3,-3.2 -2,-4.8 -2.1,0.6 -4.2,1.2 -6.2,1.8 -0.2,-0.2 -0.3,-0.4 -0.5,-0.5 0.6,-1.4 1.2,-2.9 1.8,-4.3 -1.3,-0.4 -2.6,-0.7 -3.8,-1.1 -0.1,-0.3 -0.1,-0.5 -0.2,-0.8 1.7,-0.7 3.4,-1.5 5.2,-2.2 -0.7,-1.4 -1.4,-2.8 -2.1,-4.1 0.1,-0.2 0.3,-0.5 0.4,-0.7 1.5,0.4 3.1,0.9 4.7,1.4 0.8,-1.8 1.6,-3.8 2.5,-5.7 0.3,0 0.6,0 0.8,0 0.6,1.8 1.2,3.7 1.9,5.6 1.6,-0.7 3.1,-1.4 4.6,-2 0.2,0.2 0.4,0.3 0.5,0.5 -0.7,1.5 -1.4,2.9 -2.2,4.5 1.7,0.3 3.4,0.5 5.1,0.8 0.1,0.3 0.1,0.6 0.2,0.8 -1.7,0.8 -3.3,1.5 -5.1,2.3 1.2,1.5 2.5,3 3.7,4.5 -0.2,0.2 -0.3,0.5 -0.5,0.7 -1.8,-0.5 -3.6,-1 -5.5,-1.5 -0.8,1.7 -1.7,3.4 -2.5,5.1 -0.2,-0.3 -0.5,-0.3 -0.8,-0.3 z"
   id="path78"
   style="fill:#3e618c" />
&#10;					</g>
&#10;					<g
   id="g80">&#10;						<path
   class="st7"
   d="m 1109,1973.2 c -1.4,-0.4 -2.7,-0.8 -3.9,-1.1 0,-0.3 -0.1,-0.6 -0.1,-0.9 1.7,-0.7 3.3,-1.3 5.2,-2.1 -0.7,-1.4 -1.4,-2.9 -2,-4.3 0.2,-0.2 0.3,-0.4 0.5,-0.6 1.5,0.5 2.9,0.9 4.6,1.5 0.8,-1.9 1.7,-3.8 2.5,-5.7 0.3,0 0.6,0 0.9,0 0.6,1.8 1.2,3.5 1.8,5.5 1.6,-0.6 3.1,-1.3 4.6,-1.9 0.2,0.1 0.3,0.3 0.5,0.4 -0.7,1.5 -1.4,2.9 -2.1,4.4 1.7,0.3 3.4,0.6 5.1,0.9 0.1,0.3 0.1,0.5 0.2,0.8 -1.7,0.8 -3.3,1.5 -5.1,2.4 1.2,1.5 2.4,2.9 3.6,4.4 -0.1,0.2 -0.2,0.5 -0.4,0.7 -1.8,-0.5 -3.7,-0.9 -5.6,-1.4 -0.8,1.7 -1.7,3.4 -2.5,5 -0.3,0 -0.5,0 -0.8,0 -0.7,-1.6 -1.4,-3.2 -2.2,-4.8 -2.1,0.6 -4.1,1.2 -6.1,1.8 -0.2,-0.2 -0.4,-0.4 -0.6,-0.5 0.7,-1.6 1.3,-3 1.9,-4.5 z"
   id="path79"
   style="fill:#3e618c" />
&#10;					</g>
&#10;					<g
   id="g81">&#10;						<path
   class="st7"
   d="m 1258.2,1993.1 c -0.6,-1.4 -1.2,-2.8 -1.9,-4.4 -1.9,0.5 -3.7,1.1 -6.4,1.8 0.8,-2 1.3,-3.3 1.8,-4.6 -1.2,-0.4 -2.3,-0.8 -3.5,-1.2 0,-0.3 -0.1,-0.5 -0.1,-0.8 1.5,-0.6 3,-1.2 4.7,-1.9 -0.6,-1.3 -1.2,-2.6 -2.2,-4.7 2.2,0.6 3.6,1 5,1.4 0.8,-1.7 1.6,-3.4 2.3,-5.2 0.3,0 0.5,0 0.8,0 0.6,1.6 1.1,3.2 1.7,5 1.5,-0.6 2.8,-1.2 4.2,-1.7 0.2,0.2 0.3,0.3 0.5,0.5 -0.6,1.3 -1.2,2.5 -1.9,3.9 1.6,0.3 3.1,0.7 4.7,1 0,0.2 0,0.5 0.1,0.7 -1.5,0.7 -3,1.4 -4.5,2.2 1.1,1.4 2.2,2.8 3.2,4.1 -0.1,0.2 -0.3,0.4 -0.4,0.6 -1.6,-0.4 -3.3,-0.9 -5,-1.4 -0.8,1.5 -1.6,3.1 -2.3,4.6 -0.3,0.1 -0.6,0.1 -0.8,0.1 z"
   id="path80"
   style="fill:#3e618c" />
&#10;					</g>
&#10;					<g
   id="g82">&#10;						<path
   class="st7"
   d="m 1171.4,1972.7 c 0.1,4.3 -3.5,7.1 -7.7,6.2 -2.1,-0.5 -3.6,-1.9 -3.4,-3.9 0.2,-2 1,-4.1 2.1,-5.7 1.3,-1.9 3.4,-3.2 5.9,-2.3 1.9,0.6 3.1,3 3.1,5.7 z"
   id="path81"
   style="fill:#3e618c" />
&#10;					</g>
&#10;					<g
   id="g83">&#10;						<path
   class="st7"
   d="m 1176.4,1944.2 c 0,3.4 -2.3,5.6 -5.8,5.5 -3.5,-0.1 -6.2,-2.6 -6.2,-5.6 0,-3.3 2.6,-5.1 7.3,-5.1 3.2,-0.1 4.8,1.7 4.7,5.2 z"
   id="path82"
   style="fill:#3e618c" />
&#10;					</g>
&#10;				</g>
&#10;			</g>
  </g>
</svg>
