<?xml version="1.0" encoding="UTF-8" standalone="no"?>
<!-- Created with Inkscape (http://www.inkscape.org/) -->

<svg
   width="63.5mm"
   height="63.5mm"
   viewBox="0 0 63.5 63.5"
   version="1.1"
   id="svg1"
   inkscape:version="1.3 (0e150ed6c4, 2023-07-21)"
   sodipodi:docname="portada-verbos-03.svg"
   xmlns:inkscape="http://www.inkscape.org/namespaces/inkscape"
   xmlns:sodipodi="http://sodipodi.sourceforge.net/DTD/sodipodi-0.dtd"
   xmlns="http://www.w3.org/2000/svg"
   xmlns:svg="http://www.w3.org/2000/svg">
  <sodipodi:namedview
     id="namedview1"
     pagecolor="#ffffff"
     bordercolor="#666666"
     borderopacity="1.0"
     inkscape:showpageshadow="2"
     inkscape:pageopacity="0.0"
     inkscape:pagecheckerboard="0"
     inkscape:deskcolor="#d1d1d1"
     inkscape:document-units="mm"
     inkscape:zoom="1.0627876"
     inkscape:cx="119.96753"
     inkscape:cy="292.15621"
     inkscape:window-width="3440"
     inkscape:window-height="1400"
     inkscape:window-x="2560"
     inkscape:window-y="0"
     inkscape:window-maximized="1"
     inkscape:current-layer="layer1" />
  <defs
     id="defs1" />
  <g
     inkscape:label="Capa 1"
     inkscape:groupmode="layer"
     id="layer1"
     transform="translate(-73.134827,-71.279633)">
    <rect
       x="73.134827"
       y="71.279633"
       class="st4"
       width="63.5"
       height="63.5"
       id="rect32"
       style="fill:#cc5e41;stroke-width:0.264033" />
    <g
       id="g68"
       transform="matrix(0.26403327,0,0,0.26403327,-147.12173,-402.66008)">&#10;				<g
   id="g67">&#10;					<g
   id="g61">&#10;						<path
   class="st3"
   d="m 887.5,1884.5 c 1.3,2.1 2.7,4.2 3.9,6.4 0.4,0.7 0.2,1.7 0.3,2.6 -0.9,-0.2 -2,-0.1 -2.7,-0.5 -1.8,-1.1 -3.4,-2.5 -5.4,-4 -0.9,2.3 -1.7,4.4 -2.5,6.6 -0.2,0.6 -0.3,1.3 -0.6,1.9 -0.4,0.6 -0.9,1.2 -1.4,1.7 -0.5,-0.5 -1.3,-1 -1.5,-1.7 -0.6,-2.1 -1,-4.2 -1.5,-6.4 -0.2,-0.7 -0.3,-1.4 -0.5,-2.5 -2.3,1.5 -4.3,2.8 -6.3,4 -0.7,0.4 -1.7,0.4 -2.5,0.5 -0.1,-0.8 -0.4,-1.7 -0.1,-2.4 0.8,-2.2 1.9,-4.3 3,-6.8 -1.3,0 -2.5,0 -3.6,0 -1.2,0.1 -2.3,0.3 -3.5,0.3 -0.6,0 -1.2,-0.5 -1.8,-0.8 0.3,-0.7 0.5,-1.6 1,-1.9 1.6,-1.2 3.3,-2.1 5,-3.1 0.7,-0.4 1.3,-0.8 2.5,-1.5 -1.7,-1.4 -3.1,-2.6 -4.5,-4 -0.6,-0.6 -0.9,-1.4 -1.4,-2.2 0.9,-0.2 1.7,-0.6 2.6,-0.5 1.9,0.2 3.9,0.5 5.8,0.9 1.5,0.2 2,-0.3 2.2,-1.8 0.3,-2.8 0.8,-5.6 1.4,-8.4 0.2,-0.8 1,-1.4 1.5,-2.1 0.7,0.6 1.8,1.2 2,1.9 0.8,2.7 1.3,5.5 1.9,8.3 0.6,2.9 0.7,2.9 3.4,1.6 1.6,-0.8 3.1,-1.6 4.7,-2.2 0.9,-0.3 1.9,-0.1 2.8,-0.1 0,1 0.1,2 -0.1,2.8 -0.6,1.9 -1.5,3.7 -2.3,5.7 2.3,0.6 4.4,1.1 6.5,1.8 0.7,0.2 1.2,0.9 1.8,1.4 -0.5,0.6 -1,1.5 -1.6,1.8 -2.9,0.8 -5.7,1.7 -8.5,2.7 z"
   id="path60"
   style="fill:#d2cbc3" />
&#10;					</g>
&#10;					<g
   id="g62">&#10;						<path
   class="st3"
   d="m 1047.5,1868.9 c 1.9,0.5 3.4,0.7 4.9,1.3 0.9,0.3 1.5,1.1 2.3,1.7 -0.7,0.6 -1.3,1.4 -2,1.7 -2.1,0.9 -4.2,1.5 -6.6,2.3 1.1,1.8 2.3,3.6 3.3,5.5 0.4,0.7 0.2,1.7 0.2,2.6 -0.8,-0.2 -1.7,-0.2 -2.3,-0.6 -1.5,-1 -2.9,-2.1 -4.7,-3.5 -0.9,2.5 -1.7,4.7 -2.6,6.9 -0.3,0.7 -0.9,1.4 -1.3,2 -0.5,-0.7 -1.3,-1.4 -1.5,-2.2 -0.6,-2.2 -1.1,-4.5 -1.7,-7.1 -1.9,1.2 -3.6,2.4 -5.3,3.4 -0.6,0.4 -1.4,0.4 -2.2,0.6 -0.1,-0.8 -0.4,-1.7 -0.2,-2.4 0.7,-1.9 1.6,-3.7 2.6,-6 -1.9,0.1 -3.7,0.3 -5.4,0.3 -0.8,0 -1.7,-0.5 -2.5,-0.7 0.5,-0.7 0.9,-1.6 1.6,-2.1 1.8,-1.2 3.6,-2.3 5.8,-3.7 -1.4,-1.3 -2.6,-2.3 -3.8,-3.4 -0.6,-0.6 -0.9,-1.3 -1.4,-2 0.8,-0.2 1.7,-0.5 2.5,-0.5 1.6,0.1 3.2,0.4 4.7,0.7 1.4,0.2 1.9,-0.2 2.1,-1.7 0.2,-2.5 0.7,-4.9 1.2,-7.3 0.1,-0.7 0.9,-1.2 1.3,-1.8 0.6,0.5 1.6,0.9 1.8,1.6 0.7,2.3 1.1,4.7 1.6,7 0.2,0.8 0.4,1.6 0.7,2.8 2.2,-1 4.1,-2 6.2,-2.8 0.8,-0.3 1.9,-0.2 2.8,-0.2 -0.1,0.9 0.1,1.8 -0.2,2.6 -0.5,1.7 -1.2,3.2 -1.9,5 z"
   id="path61"
   style="fill:#d2cbc3" />
&#10;					</g>
&#10;					<g
   id="g63">&#10;						<path
   class="st3"
   d="m 937.2,1845.6 c 0.8,1.4 1.6,2.6 2.3,3.9 0.2,0.4 0.1,1.1 0.1,1.6 -0.5,-0.1 -1.2,0 -1.6,-0.2 -1.1,-0.7 -2.1,-1.5 -3.3,-2.5 -0.9,2.3 -1.6,4.3 -2.4,6.2 -0.3,0 -0.5,0.1 -0.8,0.1 -0.6,-2 -1.2,-4.1 -1.9,-6.3 -1.7,1 -3.3,1.9 -4.9,2.8 -0.2,-0.2 -0.5,-0.3 -0.7,-0.5 0.6,-1.7 1.3,-3.5 2,-5.6 -1.3,0.1 -2.6,0.2 -3.8,0.2 -0.5,0 -1,-0.4 -1.4,-0.6 0.3,-0.4 0.4,-0.9 0.8,-1.2 1.3,-0.9 2.7,-1.7 4.2,-2.7 -1.3,-1.3 -2.5,-2.4 -3.6,-3.5 0.1,-0.2 0.2,-0.5 0.2,-0.7 1.3,0.2 2.6,0.2 3.8,0.5 1.7,0.3 2.6,0 2.6,-2 0,-1.3 0.3,-2.6 0.7,-3.8 0.2,-0.6 0.7,-1 1,-1.5 0.5,0.5 1.2,0.9 1.4,1.5 0.5,1.7 0.8,3.5 1.2,5.3 0.1,0.3 0.2,0.5 0.5,1 1.5,-0.7 2.9,-1.4 4.3,-2 0.5,-0.2 1.3,-0.3 1.6,0 0.3,0.2 0.2,1.1 0.1,1.5 -0.4,1.2 -0.9,2.3 -1.4,3.6 1.2,0.3 2.3,0.5 3.3,0.9 0.6,0.2 1.1,0.8 1.6,1.2 -0.5,0.4 -0.9,1 -1.4,1.2 -1.4,0.6 -2.9,1.1 -4.5,1.6 z"
   id="path62"
   style="fill:#d2cbc3" />
&#10;					</g>
&#10;					<g
   id="g64">&#10;						<path
   class="st3"
   d="m 942,1908.4 c -1.7,0 -3.3,0 -4.9,0 -0.1,-0.2 -0.2,-0.4 -0.3,-0.7 1.6,-1.1 3.1,-2.3 5.1,-3.7 -1.3,-1.1 -2.4,-2 -3.5,-3 0.1,-0.2 0.1,-0.5 0.2,-0.7 1.2,0.1 2.5,0.2 3.7,0.4 1.7,0.4 2.3,-0.2 2.4,-1.9 0.1,-1.7 0.7,-3.4 1.1,-5.7 2.9,2.4 1.9,5.5 3.3,8 0.8,-0.3 1.6,-0.8 2.5,-1 1,-0.3 2.1,-0.5 3.2,-0.8 -0.2,1 -0.4,2 -0.6,3 -0.1,0.6 -0.4,1.1 -0.6,1.7 1.6,0.5 3.1,1 4.6,1.6 0,0.3 0.1,0.6 0.1,0.9 -1.8,0.8 -3.7,1.6 -5.7,2.4 0.7,1.1 1.4,2.3 2.1,3.6 0.2,0.4 0.1,0.9 0.1,1.4 -0.5,-0.1 -1.1,0 -1.5,-0.2 -1,-0.6 -1.9,-1.3 -3.1,-2.2 -0.8,2.1 -1.6,3.9 -2.3,5.8 -0.3,0 -0.5,0 -0.8,0.1 -0.5,-1.9 -1.1,-3.8 -1.7,-5.9 -1.6,0.9 -3.1,1.8 -4.7,2.6 -0.2,-0.1 -0.5,-0.3 -0.7,-0.4 0.8,-1.7 1.4,-3.4 2,-5.3 z"
   id="path63"
   style="fill:#d2cbc3" />
&#10;					</g>
&#10;					<g
   id="g66">&#10;						<g
   id="g65">&#10;							<path
   class="st3"
   d="m 888.5,1964.4 c -3.3,-4.4 -6.7,-8.6 -9.8,-13.1 -2.4,-3.5 -4.4,-7.1 -6.4,-10.8 -2.1,-4 -0.2,-7 4,-7.5 0,-2.5 -0.4,-4.9 0.1,-7.2 0.5,-2.6 2.7,-3.6 4.9,-2.5 3.6,1.9 6.6,4.2 8.6,8.1 2.3,4.5 5.3,8.6 8.1,12.9 0.4,-0.2 0.7,-0.3 1.1,-0.5 -0.2,-0.6 -0.2,-1.3 -0.5,-1.8 -3.3,-6.1 -6.5,-12.2 -9.8,-18.2 -1.5,-2.8 -1,-6.2 1.1,-7.5 2.5,-1.5 6.5,-0.5 8.2,2.1 4.8,7.7 9.5,15.4 14.3,23 0.5,0.8 1.1,1.6 1.7,2.4 0.3,-0.1 0.5,-0.2 0.8,-0.2 -0.3,-2.1 -0.3,-4.3 -1,-6.3 -1.8,-5.7 -2.4,-11.5 -1.5,-17.4 0.4,-2.6 2,-3.8 4.3,-4.1 2.2,-0.2 4,0.9 4.7,3.2 2.3,8.2 4.5,16.3 6.8,24.5 0.9,3.1 1.4,6.4 2.6,9.4 1.5,4.1 5.6,4.9 9,6.4 10.9,4.9 22.4,4.9 34,4.4 6.2,-0.3 12.5,1 18.7,0.8 5.8,-0.1 11.6,-0.9 17.4,-2 3.8,-0.7 7.4,-2.3 11.1,-3.6 0.2,-0.1 0.3,-0.2 0.5,-0.3 4.4,-0.5 8.5,-2.8 13.2,-2.6 3.6,0.1 7.2,-1.2 10.8,-2 0.5,-0.1 0.8,-1.1 1.3,-1.6 -0.7,-0.3 -1.3,-0.8 -2,-0.9 -4.5,-0.3 -9.1,-0.4 -13.6,-0.8 -0.8,-0.1 -2.1,-0.9 -2.2,-1.5 -0.1,-0.7 0.7,-2.1 1.4,-2.3 4.6,-1.6 9.2,-2.9 13.8,-4.3 1.2,-0.4 2.5,-0.8 3.5,-1.5 0.6,-0.4 0.8,-1.6 0.7,-2.4 0,-0.3 -1.4,-0.8 -2.1,-0.6 -4.5,1 -9.1,2.1 -13.6,3.1 -0.7,0.2 -1.6,0.5 -2.2,0.3 -0.8,-0.4 -1.7,-1.2 -2,-2 -0.1,-0.5 0.8,-1.7 1.4,-1.9 2.5,-0.9 5.2,-1.6 7.7,-2.4 2.4,-0.7 4.9,-1.3 7.2,-2.1 1,-0.4 1.9,-1.2 2.6,-2 1.2,-1.4 0.4,-3.2 -1.5,-3.5 -0.5,-0.1 -1.1,-0.1 -1.7,0 -5.7,1.2 -11.5,2.4 -17.2,3.6 -0.7,0.2 -1.5,0.5 -2.2,0.3 -1.1,-0.3 -2.6,-0.7 -3,-1.4 -0.4,-0.8 0.1,-2.6 0.8,-3.1 2,-1.6 4.3,-3 6.5,-4.2 3,-1.6 6.1,-2.8 9,-4.4 1,-0.6 1.6,-1.9 2.3,-3 -1.2,-0.3 -2.6,-1 -3.7,-0.8 -2.5,0.6 -5,1.5 -7.4,2.5 -7.1,2.8 -14.1,5.7 -21.2,8.5 -1.2,0.5 -2.5,0.7 -3.8,0.9 -3.1,0.5 -5.3,-2.2 -4.3,-5.2 1.5,-4.8 2.9,-9.6 4.2,-14.4 0.4,-1.4 0.2,-2.9 0.3,-4.4 -0.3,-0.1 -0.6,-0.3 -0.9,-0.4 -1.2,2.4 -2.9,4.6 -3.6,7.1 -1.7,6.1 -4.2,11.7 -7.5,17.1 -4.1,6.4 -9.5,9.9 -17.3,9.9 -7.1,-0.1 -14.2,0.7 -21.3,0.3 -5.5,-0.3 -10.9,-1.9 -16.4,-3 -1.7,-0.3 -3.4,-1 -5.1,-1.4 -2.3,-0.6 -3.3,-1.9 -2.5,-4.3 11.5,5 23.4,6.4 35.6,5.1 4.4,-0.4 8.7,-1 13.1,-1.3 4.7,-0.3 8.6,-2.1 10.6,-6.5 2.8,-6.2 5.3,-12.5 8.1,-18.7 1.2,-2.7 2.9,-5.2 4.8,-7.5 0.7,-0.8 2.7,-1.4 3.6,-0.9 1,0.5 2.1,2.2 2.1,3.3 0.2,5.8 -1.1,11.4 -3.2,16.9 -0.6,1.6 -1,3.3 -1.8,5.8 2.5,-0.7 4.6,-1.2 6.5,-2 3.9,-1.7 7.6,-3.9 11.5,-5.5 5.5,-2.3 11,-4.6 17.2,-4.5 3.4,0 6.3,1.4 6.8,3.4 0.4,1.8 -1.7,4.3 -4.9,5.7 -3,1.3 -6,2.6 -8.9,4 -1,0.5 -2,1.3 -2.9,1.9 0.1,0.2 0.2,0.5 0.3,0.7 4.5,-0.9 8.9,-1.9 13.4,-2.6 2.2,-0.3 4.6,-0.3 6.7,0.2 3,0.7 3.9,3.3 2.5,6.1 -0.6,1.2 -1.4,2.4 -2.3,3.9 2.5,1.2 4.4,2.8 3.6,6 -0.6,2.5 -1.7,4.4 -4.3,4.9 -3.4,0.6 -6.8,1.2 -10.2,2.3 2.4,0.1 4.9,0 7.3,0.5 1.5,0.3 3.5,0.9 4.2,2.1 0.7,1 0.6,3.7 -0.2,4.4 -2,1.7 -4.6,2.8 -7.1,4.1 -0.4,0.2 -1.1,0.1 -1.7,0 -3,-0.3 -3.8,1.4 -4.3,4.1 -1.5,7.7 -2.7,15.7 -8.1,21.7 -3.1,3.4 -7.5,5.9 -11.7,7.9 -9.2,4.4 -19.2,5.6 -29.4,5.3 -9.3,-0.3 -18.6,-0.2 -27.9,-0.9 -9.5,-0.7 -18.9,-2 -28.3,-3.3 -3.7,-0.5 -7.2,-1.8 -10.8,-2.6 -4.1,-0.9 -8.2,-2 -12.3,-2.2 -4.2,-0.2 -7.5,-2.3 -10.6,-4.5 -7.7,-5.3 -14.7,-11.5 -20.2,-19.2 -1.4,-2 -3.3,-3.6 -4.7,-5.6 -0.8,-1.2 -1.4,-2.9 -1.2,-4.3 0.2,-1.3 1.1,-3.1 2.3,-3.6 0.9,-0.5 3,0.2 3.9,1 3,2.8 5.6,5.9 8.4,9 0.9,0.9 1.6,2 2.4,3 0.1,-0.4 0.4,-0.7 0.7,-1 z m 145.6,-4.6 c -0.7,0 -1.2,-0.1 -1.6,0 -5.1,1.5 -10.1,3.2 -15.2,4.6 -3.7,1 -7.5,1.9 -11.3,2.6 -3.4,0.6 -6.9,1.3 -10.4,1.3 -8.1,-0.1 -16.2,-0.6 -24.3,-0.8 -5.8,-0.2 -11.6,-0.2 -17.3,-0.6 -7.2,-0.5 -13.5,-4.2 -19.9,-7 -2.3,-1 -5,-2.8 -5.9,-5 -1.9,-4.3 -2.6,-9.1 -3.8,-13.7 -1.8,-6.8 -3.4,-13.7 -5.3,-20.5 -0.2,-0.6 -1.3,-1.3 -2,-1.4 -0.5,-0.1 -1.7,0.9 -1.7,1.3 0.2,5.1 0.4,10.2 0.9,15.3 0.3,2.8 1.2,5.4 1.5,8.2 0.3,2.4 -2.1,3.8 -4.1,2.5 -1.4,-1 -2.7,-2.3 -3.7,-3.8 -4.8,-7.2 -9.4,-14.5 -14,-21.8 -0.9,-1.5 -1.9,-2.3 -3.7,-1.5 -1.7,0.8 -1.5,2.2 -0.9,3.6 1.8,3.7 3.8,7.4 5.7,11.2 1.7,3.3 3.4,6.6 4.8,10.1 0.4,0.9 -0.2,2.3 -0.3,3.4 -1.1,-0.2 -2.6,0 -3.2,-0.6 -2.5,-2.7 -4.8,-5.6 -7,-8.6 -2.3,-3.1 -4.3,-6.5 -6.8,-9.6 -1.1,-1.3 -2.8,-2.1 -4.3,-3.1 -0.4,0.2 -0.7,0.4 -1.1,0.7 0.4,1.9 0.2,4.1 1.2,5.6 2.5,4.2 5.3,8.3 8.3,12.2 2.4,3.1 5.5,5.8 8.1,8.8 0.5,0.6 0.5,1.7 0.7,2.6 -1.1,0 -2.2,0 -3.2,-0.2 -0.3,0 -0.5,-0.5 -0.7,-0.8 -3.1,-3.8 -6.3,-7.6 -9.4,-11.4 -1.6,-2 -2.9,-4.1 -4.7,-5.9 -0.7,-0.7 -2.3,-1.4 -3,-1.1 -0.8,0.4 -1.5,1.9 -1.5,2.9 0,1.1 0.5,2.4 1.2,3.3 3.9,5 8,9.8 11.7,14.9 1.7,2.3 3.1,4.9 4.2,7.5 0.3,0.8 -0.3,2.5 -1,3 -0.8,0.5 -2.3,0.4 -3.3,0 -1.2,-0.5 -2.4,-1.5 -3.3,-2.5 -2.4,-2.5 -4.5,-5.2 -6.9,-7.7 -0.9,-0.9 -2.1,-1.5 -3.2,-2.3 -0.3,0.2 -0.6,0.4 -0.9,0.7 0.4,1.2 0.5,2.6 1.2,3.5 7.1,8.2 13.8,16.7 23.4,22.2 1.6,0.9 3,2.4 4.7,2.9 4.7,1.4 9.4,2.9 14.2,3.7 13.2,2.2 26.3,5.3 39.7,6.4 11.2,0.9 22.3,1.5 33.5,0.9 5.6,-0.3 11.2,-1.2 16.5,-2.6 5.9,-1.5 11.3,-4.2 15.9,-8.3 7.3,-6.9 8.4,-16.3 11.5,-25.1 z"
   id="path64"
   style="fill:#d2cbc3" />
&#10;						</g>
&#10;					</g>
&#10;				</g>
&#10;			</g>
  </g>
</svg>
