<?xml version="1.0" encoding="UTF-8" standalone="no"?>
<!-- Created with Inkscape (http://www.inkscape.org/) -->

<svg
   width="63.5mm"
   height="63.5mm"
   viewBox="0 0 63.5 63.5"
   version="1.1"
   id="svg1"
   inkscape:version="1.3 (0e150ed6c4, 2023-07-21)"
   sodipodi:docname="portada-verbos-05.svg"
   xmlns:inkscape="http://www.inkscape.org/namespaces/inkscape"
   xmlns:sodipodi="http://sodipodi.sourceforge.net/DTD/sodipodi-0.dtd"
   xmlns="http://www.w3.org/2000/svg"
   xmlns:svg="http://www.w3.org/2000/svg">
  <sodipodi:namedview
     id="namedview1"
     pagecolor="#ffffff"
     bordercolor="#666666"
     borderopacity="1.0"
     inkscape:showpageshadow="2"
     inkscape:pageopacity="0.0"
     inkscape:pagecheckerboard="0"
     inkscape:deskcolor="#d1d1d1"
     inkscape:document-units="mm"
     inkscape:zoom="1.0627876"
     inkscape:cx="120.90845"
     inkscape:cy="119.96753"
     inkscape:window-width="3440"
     inkscape:window-height="1400"
     inkscape:window-x="2560"
     inkscape:window-y="0"
     inkscape:window-maximized="1"
     inkscape:current-layer="layer1" />
  <defs
     id="defs1" />
  <g
     inkscape:label="Capa 1"
     inkscape:groupmode="layer"
     id="layer1"
     transform="translate(-73.024994,-116.68124)">
    <rect
       x="73.024994"
       y="116.68124"
       class="st8"
       width="63.5"
       height="63.5"
       id="rect85"
       style="fill:#2a6e6d;stroke-width:0.264033" />
    <g
       id="g96"
       transform="matrix(0.26403327,0,0,0.26403327,-274.5748,-357.25847)">&#10;				<g
   id="g95">&#10;					<g
   id="g92">&#10;						<g
   id="g91">&#10;							<path
   class="st5"
   d="m 1434.6,1975 c -0.5,-6.8 -1,-13.7 -1.2,-20.5 -0.2,-5.3 -0.1,-10.7 1.9,-15.8 3.1,-8.3 3.4,-17 3.3,-25.7 -0.2,-10.2 -1,-20.3 -1.1,-30.5 -0.1,-7.4 0.5,-14.7 0.7,-22.1 0.1,-4.3 -0.2,-8.7 -0.2,-13 0,-4.8 0.4,-9.7 0.4,-14.5 0,-1.4 -0.5,-2.9 -1,-4.3 -1,-3 -3.3,-3.5 -5.3,-1.1 -1.1,1.3 -2.2,3 -2.6,4.7 -1.8,6.3 -3.3,12.7 -4.9,19 -0.4,1.5 -0.7,3 -1.1,4.5 -0.3,0 -0.7,-0.1 -1,-0.1 0,-7.5 -0.1,-15.1 0,-22.6 0,-3.3 -0.3,-6.4 -2.2,-9.1 -0.8,-1.1 -1.9,-2.4 -3,-2.6 -1.9,-0.3 -2.8,1.4 -3.2,3.1 -0.8,4.1 -1.6,8.2 -2.2,12.4 -0.7,5.4 -1,10.8 -1.6,16.2 -0.2,1.8 -0.9,3.5 -1.3,5.3 -0.3,0 -0.5,-0.1 -0.8,-0.1 0,-1.9 0.1,-3.8 0,-5.8 -0.4,-10 -0.8,-20 -1.4,-29.9 -0.2,-3.2 -2,-4.7 -4.6,-4.7 -1.9,0 -3.8,1.9 -4.1,4.5 -0.9,8 -1.7,16 -2.5,24 -0.5,4.7 -1,9.3 -1.5,14 -0.3,0 -0.7,0 -1,0 -0.5,-4.3 -0.9,-8.5 -1.5,-12.8 -1,-7.2 -2.2,-14.4 -3.4,-21.6 -0.3,-2 -1,-4.3 -3.8,-4.1 -2.6,0.2 -2.9,2.6 -3.1,4.4 -0.9,6.3 -1.9,12.7 -2,19.1 -0.1,10.9 0.6,21.8 0.9,32.7 0.1,3.1 0,6.2 0,9.3 -0.4,0.1 -0.7,0.2 -1.1,0.2 -1.7,-4.1 -3.3,-8.3 -5.2,-12.4 -1.1,-2.4 -2.1,-5 -3.9,-7 -2.6,-2.9 -7.4,-1.4 -8.3,2.3 -0.5,2.3 -0.9,4.7 -0.6,7.1 0.6,6.1 1.4,12.2 2.4,18.3 0.5,3.2 1,6.7 2.7,9.3 4,6.2 8.7,11.9 13.2,17.7 5.5,7.1 8.2,15.2 8.4,24.1 0.1,4.8 -0.6,9.7 -0.7,14.5 -0.2,9.8 -0.1,19.5 -2,29.2 -0.4,2.1 -0.3,4.3 -0.4,6.4 2.5,1.1 3.5,-0.3 3.7,-2.3 0.9,-6.4 1.8,-12.8 2.3,-19.3 0.3,-4.7 0,-9.5 -0.2,-14.2 -0.2,-4.2 -0.5,-8.5 -1,-12.7 -0.4,-3.3 -0.8,-6.7 -1.7,-9.9 -1.4,-4.8 -2.5,-9.8 -5.1,-13.9 -3.6,-5.8 -8.4,-10.8 -12.7,-16.2 -1.8,-2.3 -3.4,-4.6 -3.6,-7.7 -0.2,-3.1 -0.4,-6.2 -0.9,-9.3 -0.4,-2.5 -1.2,-5 -1.8,-7.5 0.3,0.1 0.5,0.2 0.8,0.4 1.1,-1.1 3,-2.2 3.1,-3.4 0.1,-3.4 0.8,-7.4 -4,-8.5 0.2,-2 0.3,-4 2.5,-4.4 2.1,-0.4 2.5,1.6 3.1,2.8 2.1,4.5 3.8,9.1 6,13.5 1.2,2.3 2.8,4.6 4.8,6.4 6.1,5.6 12,11.3 15.2,19.1 1.6,3.8 2.3,8 3.5,12 0.2,0.8 1.2,1.3 1.8,1.9 0.4,-0.9 1.2,-1.8 1.1,-2.6 -0.8,-7.1 -2.6,-13.9 -7.5,-19.6 -3.6,-4.2 -6.8,-8.6 -11.5,-11.6 -0.4,-0.2 -0.8,-0.7 -0.8,-1.1 -0.2,-2.7 -0.3,-5.4 -0.3,-8.1 0,-6 0.3,-11.9 0.3,-17.9 0,-8.3 -0.2,-16.7 -0.2,-25 0,-2.3 0.3,-4.7 0.7,-7 0.4,-2.8 1,-5.5 1.5,-8.2 0.3,0 0.6,0 0.9,0 0.5,1 1.2,1.9 1.4,3 1.1,6.6 2.1,13.2 3,19.9 0.6,4.7 1,9.4 1.6,14.2 0.2,1.6 0.9,3.2 2.9,3.1 2,-0.1 2.7,-1.7 2.7,-3.5 0.1,-3 0,-6.1 0.4,-9.1 0.5,-4.2 1.4,-8.4 2,-12.6 0.7,-5.3 1.2,-10.6 2,-15.8 0.1,-0.9 1.2,-1.7 1.9,-2.6 0.6,0.8 1.7,1.6 1.8,2.5 0.9,7 1.9,14 2.2,21 0.3,5 -0.5,10 -0.7,15 -0.1,1.4 0.1,3.3 1.9,3.1 1.1,-0.1 2.9,-1.4 3.1,-2.4 1,-4 1.6,-8 2.1,-12.1 1,-7.3 1.8,-14.5 2.7,-21.8 0.1,-0.7 0.6,-1.2 0.9,-1.9 0.3,-0.1 0.6,-0.1 0.9,-0.2 1,2.2 2.7,4.4 2.9,6.8 0.4,5.2 0.1,10.5 0.1,15.8 0,3.6 -0.2,7.2 0,10.8 0,1 1,2.5 1.8,2.7 1.6,0.4 2.3,-1 2.7,-2.5 1.3,-5.3 2.4,-10.7 4,-16 1.1,-3.8 2.6,-7.4 4,-11 0.2,-0.5 1.1,-0.8 1.6,-1.2 0.3,0.5 0.9,1 1,1.6 0.4,2.2 0.9,4.4 0.9,6.5 0,4.3 -0.5,8.5 -0.6,12.8 -0.1,6.9 0.1,13.8 0.1,20.7 0,2.5 -0.1,2.6 -2.8,2.4 -0.5,-3.2 -1,-6.5 -1.5,-9.7 -0.4,0 -0.9,0.1 -1.3,0.1 0,2.7 0.1,5.5 0,8.2 0,0.8 -0.2,2 -0.8,2.3 -1.6,1 -3.5,1.7 -5.3,2.5 -0.9,-1.8 -1.5,-3.5 -2.4,-5.1 -0.8,-1.5 -1.8,-2.8 -2.7,-4.3 -0.3,0.2 -0.6,0.3 -1,0.5 0.2,0.7 0.3,1.5 0.5,2.2 0.8,2.3 1.7,4.6 2.4,7 0.2,0.6 0.1,1.6 -0.3,2.2 -1.2,1.6 -2.5,3 -4,4.6 -3.6,-3.1 -6.8,-5.9 -10,-8.6 -0.3,0.3 -0.5,0.6 -0.8,0.8 3,3 6,5.9 9.2,9.1 -0.9,1.2 -1.7,2.5 -2.9,4.1 -3.6,-2.2 -7.2,-4.3 -10.8,-6.4 -0.7,-0.4 -1.6,-0.3 -2.4,-0.4 -0.1,0.3 -0.1,0.6 -0.2,0.9 3.5,2.2 7.1,4.4 10.5,6.7 0.5,0.4 1.2,1.4 1,1.8 -0.9,2.1 -2,4.2 -2.7,5.7 -4.7,0.7 -7.1,-4.4 -11.6,-2.4 2.9,1.7 6,3 9,4.4 0.6,0.3 1.4,1.1 1.4,1.7 -0.1,2.1 -0.4,4.2 -0.7,6.3 -2.2,0.5 -4.4,-1.5 -7,0.6 2.8,0.5 4.9,1 7.2,1.4 0,2.6 0,5.2 0,7.6 -1.1,0.6 -2.1,1.1 -3.1,1.6 0.1,0.2 0.1,0.3 0.2,0.5 1,0.2 2.1,0.3 3.3,0.5 0.5,2.8 1,5.5 1.5,8.1 -3.6,1.9 -6.9,3.7 -10.3,5.6 -0.1,0.3 -0.2,0.5 -0.3,0.8 0.4,0.2 0.9,0.6 1.1,0.4 3.4,-1.5 6.8,-3 10.2,-4.5 0.7,1.3 1.4,2.8 1.9,4 -3.2,2.9 -6.3,5.7 -9.3,8.5 0.2,0.3 0.5,0.6 0.7,1 4.3,-0.7 6.9,-4.3 10.2,-7.1 1.7,2.1 3.2,4 4.7,5.9 -2.5,2.9 -5.8,4.9 -6.8,8.7 2.9,0.7 3.2,0.6 4.3,-0.9 1.4,-2.1 2.8,-4.1 4.2,-6.1 2.4,1.5 4.5,2.9 6.5,4.2 -1.7,2.9 -3.2,5.7 -4.8,8.6 1.7,1.2 2.7,1 3.6,-0.7 1.2,-2.4 2.7,-4.6 4,-6.8 2.5,-0.1 3,1.1 2.9,3.1 -0.1,5 -0.1,10 0.3,15 0.5,6.8 1.5,13.5 2.4,20.2 0.2,1.8 0.7,3.5 1.1,5.2 0.3,0 0.6,0 0.9,-0.1 0.1,-0.7 0.4,-1.4 0.4,-2.1 -0.3,-5.1 -0.9,-9.7 -1.2,-14.3 z m 0.2,-43.4 c -2.4,-0.7 -4.6,-1.5 -6.9,-2.2 -0.1,-0.2 -0.1,-0.5 -0.2,-0.7 1.7,-0.4 3.6,-1.4 5.2,-1.1 1,0.2 3.5,1.4 1.9,4 z m -4,15.1 c -3.2,-1.8 -6.1,-3.2 -8.7,-5.1 -10.9,-8 -15.1,-19.1 -14.1,-32.2 0.9,-12 6.2,-21.9 14.5,-30.4 2.8,-2.8 8.8,-5 12.1,-5 0.8,15.6 1.6,31.2 2.4,47.1 -1.7,-0.2 -3,-0.1 -4.2,-0.5 -0.5,-0.1 -1.1,-1.2 -1,-1.7 0.3,-5 0.6,-10 1,-14.9 0.4,-4.9 -2.7,-9.5 -7.3,-11.1 -5.1,-1.7 -10.5,-0.2 -12.9,4.2 0.8,-0.3 1.6,-0.5 2.3,-1 2.9,-1.8 5.9,-2.4 9.2,-1.7 3.5,0.7 6.2,2.8 6.7,6.4 0.5,3.3 0.3,6.7 0.2,10 -0.1,2.2 -0.5,4.4 -0.7,6.6 -0.4,3.3 0.4,4.2 3.7,4.7 0.8,0.1 1.6,0.2 2.7,0.4 -0.1,1.6 -0.2,3.1 -0.3,5.3 -4.9,-5.5 -8.3,-0.6 -12.3,1.1 1.8,4.2 2.1,9.5 8.3,11 -0.6,2 -1,4 -1.6,6.8 z m 0.9,-10.5 c -2.8,-0.8 -3.6,-3.1 -5,-6 2.6,1.1 4.6,1.8 6.5,2.8 0.5,0.3 1,1.4 0.8,2 -0.2,1 -0.9,1.6 -2.3,1.2 z"
   id="path90"
   style="fill:#f5b4c1" />
&#10;							<path
   class="st5"
   d="m 1428.9,1904.8 c -1.8,-4.9 -8.7,-8.2 -13.4,-6.2 -2,0.8 -3.7,2.5 -5.8,4 1.1,1.2 1.8,1.9 2.5,2.8 5.1,6.2 10,6.7 16.2,1.6 0.4,-0.4 0.7,-1.6 0.5,-2.2 z m -13.7,2.4 c -0.9,-1.1 -1.9,-2.4 -3.2,-3.9 1.5,-1.3 2.8,-2.4 4.3,-3.6 -0.4,2.7 -0.7,5.1 -1.1,7.5 z m 8.8,1.6 c 0.6,-2 1,-3.7 1.6,-5.8 0.8,1.2 1.4,2 2.1,3 -1.2,1 -2.3,1.8 -3.7,2.8 z"
   id="path91"
   style="fill:#f5b4c1" />
&#10;						</g>
&#10;					</g>
&#10;					<g
   id="g94">&#10;						<g
   id="g93">&#10;							<path
   class="st5"
   d="m 1520.9,1871.8 c -0.2,-2.1 -1.4,-3.8 -3.6,-4.3 -2.2,-0.5 -3.6,1 -4.5,2.7 -2.4,4.9 -4.8,9.9 -6.9,14.9 -1.5,3.6 -3.1,7.1 -6.1,10.1 -0.1,-0.7 -0.2,-1.1 -0.2,-1.4 0.8,-9.1 1.7,-18.3 2.3,-27.4 0.5,-7.7 0.9,-15.4 0.8,-23.1 -0.1,-6 -1,-11.9 -1.7,-17.9 -0.2,-2 -1,-4 -3.3,-4.4 -2.4,-0.3 -3.5,1.6 -4.2,3.5 -0.9,2.4 -1.9,4.9 -2.4,7.5 -1.5,7.9 -2.8,15.8 -4.1,23.8 -0.4,2.2 -1,4.3 -3,6.1 0,-5.1 -0.1,-9.6 0,-14.2 0.3,-8.5 0.5,-16.9 -1.1,-25.3 -0.3,-1.5 -0.8,-3 -1.4,-4.4 -0.9,-2.2 -3.7,-2.7 -5.2,-0.8 -1.2,1.6 -2.5,3.5 -2.7,5.4 -0.8,8.2 -1.2,16.4 -1.7,24.5 -0.3,4.3 -0.6,8.7 -1.1,13 -0.1,0.9 -0.9,1.8 -1.6,3 -0.4,-0.7 -0.6,-0.9 -0.7,-1.2 -0.8,-7.2 -1.7,-14.4 -2.2,-21.5 -0.4,-5.3 -0.4,-10.7 -2.7,-15.6 -0.5,-1.1 -2.3,-2.4 -3.5,-2.3 -1.2,0.1 -3.2,1.6 -3.2,2.6 -0.6,7.5 -0.8,15.1 -1.1,22.6 -0.2,4.6 -0.2,9.2 -0.3,13.8 0,0.9 -0.6,1.7 -0.9,2.6 -0.9,-0.8 -1.4,-1.5 -1.4,-2.2 -0.2,-3.4 -0.4,-6.7 -0.5,-10.1 -0.2,-5.2 -0.2,-10.3 -0.5,-15.5 -0.1,-2.4 -0.6,-4.7 -1.2,-7 -0.5,-1.8 -1.9,-3.1 -4,-3.1 -2.1,0 -2.9,1.6 -3.2,3.2 -0.6,3.1 -1,6.3 -1.2,9.5 -0.3,7 -0.2,13.9 -0.4,20.9 -0.1,4 -0.7,8 -0.7,12 0,4.7 0.5,9.4 0.4,14.2 -0.1,5.9 -0.7,11.8 -0.7,17.7 0,5.3 0.8,10.6 0.8,16 0,8.7 1.5,16.9 4.8,24.9 0.4,1 0.7,2 0.7,3.1 -0.2,7.9 -0.4,15.9 -0.6,23.8 -0.1,6 -0.1,12 -0.1,17.9 0,0.7 0.3,1.4 0.5,2.3 0.6,-0.3 1,-0.3 1,-0.5 0.7,-14.1 1.4,-28.3 2,-42.5 2.4,-0.7 4.3,-0.3 5.3,2.8 0.5,1.7 1.6,3.2 2.6,4.7 0.4,0.6 1.4,0.8 2.1,1.2 0.1,-0.2 0.3,-0.4 0.4,-0.6 -1,-2.7 -2.1,-5.3 -2.9,-8.1 -0.2,-0.7 0.1,-1.9 0.6,-2.4 2,-1.9 4.2,-3.7 6.4,-5.5 5.1,6.1 5.1,6.1 6.9,5.5 -1.1,-1.8 -2.3,-3.4 -3.3,-5.2 -0.5,-0.9 -1.4,-2.3 -1.1,-3 1.3,-2.7 3,-5.2 4.5,-7.7 2.2,1.6 4,2.9 6.1,4.5 0,-0.8 0.1,-0.9 0,-1 -0.3,-0.4 -0.6,-0.8 -0.9,-1.1 -2.8,-2.2 -4.1,-4.4 -2.4,-8.2 1.2,-2.7 1.1,-5.9 1.5,-8.8 2.3,-1 5.2,-0.1 7.1,-2.8 -2.6,0 -4.8,0 -7.1,0 0,-2.3 0.1,-4.4 0,-6.5 -0.1,-3.5 -0.2,-3.4 3.4,-4.5 1.8,-0.5 3.4,-1.3 5.1,-2 -0.1,-0.4 -0.3,-0.7 -0.4,-1.1 -2.7,0.6 -5.5,1.1 -8.2,1.7 -0.1,-0.1 -0.2,-0.2 -0.2,-0.2 -0.5,-1.5 -1,-3 -1.5,-4.4 -1.2,-3.5 -1.2,-3.5 2.1,-5.5 1.7,-1 3.1,-2.3 3.5,-4.7 -2.7,1.7 -5.2,3.1 -7.6,4.6 -0.9,-1.5 -1.6,-3.1 -2.7,-4.3 -1.7,-1.9 -1.7,-3.3 0.1,-5.2 1.4,-1.5 2.4,-3.4 3.6,-5.2 -0.2,-0.1 -0.4,-0.3 -0.6,-0.4 -2.1,2.1 -4.2,4.2 -6.2,6.3 -2.3,-2.1 -4.4,-4 -6.3,-5.7 1.6,-2.6 3.1,-5 4.6,-7.4 -0.3,-0.2 -0.6,-0.4 -0.8,-0.6 -3.1,1.2 -3.6,4.8 -5.6,6.7 -3,-1 -5.8,-2 -8.3,-2.9 -0.2,-2.7 -0.3,-5.1 -0.5,-7.6 -0.4,0 -0.7,0 -1.1,-0.1 -0.4,2.4 -0.7,4.8 -1.1,7.2 -1.4,-0.2 -2.6,-0.5 -3.8,-0.7 -0.1,-0.4 -0.1,-0.8 -0.1,-1.1 0.4,-7.5 0.9,-15.1 1.3,-22.6 0.3,-5.4 0.4,-10.8 0.8,-16.2 0.1,-1.1 0.7,-2.1 1.1,-3.2 1,0.8 1.6,1.5 1.7,2.2 0.7,5.4 1.6,10.9 2,16.3 0.5,5.9 0.5,11.8 0.7,17.7 0.1,2 1.2,3.4 3.1,3.5 2.1,0.1 2.8,-1.6 3.2,-3.5 0.1,-0.4 0.2,-0.8 0.2,-1.2 0.1,-6.2 0.1,-12.4 0.2,-18.6 0.1,-6.2 0.3,-12.4 0.5,-18.6 0,-0.6 0.9,-1.2 1.5,-1.6 0.2,-0.1 1.1,0.6 1.3,1.1 0.6,1.3 1.3,2.6 1.4,3.9 0.8,7.8 1.4,15.5 2.1,23.3 0.3,3.2 0.3,6.4 0.9,9.5 0.2,1.1 1.7,2.7 2.8,2.9 1.8,0.3 3.2,-0.9 3.6,-2.9 0.5,-2.2 1.1,-4.3 1.2,-6.5 0.5,-9.4 0.8,-18.9 1.4,-28.3 0.2,-3.4 1.2,-6.6 4.3,-9.3 0.6,1.6 1.4,2.8 1.7,4.1 1.4,6.2 0.9,12.6 0.6,18.9 -0.3,6.8 -0.4,13.6 -0.4,20.4 0,0.8 0.8,2.3 1.5,2.4 1,0.2 2.5,-0.1 3.4,-0.8 1,-0.8 1.7,-2.1 2,-3.3 0.9,-3.4 1.4,-6.9 2.1,-10.3 1.6,-7.6 3.2,-15.2 4.9,-22.8 0.3,-1.4 1.1,-2.6 1.7,-3.9 0.3,0 0.6,0 0.8,0 0.4,1.1 0.9,2.3 1.2,3.5 2.2,10.2 1.5,20.4 1,30.7 -0.4,7.9 -1,15.7 -1.3,23.6 -0.3,5.8 -0.3,11.6 -0.5,17.5 0,0.9 -0.6,1.8 -1.1,2.5 -3.3,4.6 -6.7,9.1 -10.1,13.7 -0.3,0.4 -0.5,0.9 -0.6,1.4 -0.5,4.5 -1,8.9 -1.3,13.4 0,0.7 1,1.4 1.6,2.1 0.2,-0.2 0.5,-0.3 0.7,-0.5 -0.1,-1 -0.2,-1.9 -0.1,-2.9 0.1,-2.9 0.1,-5.9 0.5,-8.8 0.6,-4.6 4,-7.8 6.5,-11.4 2.8,-3.9 6.3,-7.4 8.7,-11.6 2.8,-5.1 4.6,-10.8 7.1,-16.1 1.5,-3.2 3.5,-6.3 5.6,-9.2 1.1,-1.6 2.4,-1.3 3.1,0.5 0.5,1.5 0.7,3.1 1,4.7 -4.3,0.5 -5.3,1.5 -5.4,5.4 -0.1,3.6 3.1,2.8 5.2,3.8 0,0.3 0.1,0.7 0.1,1.1 -0.9,12.2 -1.5,24.4 -4.9,36.3 -0.5,1.7 -0.8,3.6 -1.7,5.1 -2.2,3.3 -4.8,6.4 -7.2,9.6 -3.4,4.6 -8.2,8.5 -9.4,14.5 -1,4.8 -1.7,9.6 -2.2,14.5 -0.8,7.3 -1.3,14.6 -1.9,21.9 -0.1,1.5 -0.3,3 -0.4,4.6 2.5,-0.4 2.7,-0.5 3,-2.3 0.4,-2.3 0.5,-4.6 0.7,-6.8 0.8,-8.1 1.6,-16.3 2.2,-24.4 0.4,-4.8 1.3,-9.4 4.4,-13.3 2.1,-2.5 4.2,-5.1 6.4,-7.4 5.7,-5.9 8.5,-13.2 9.9,-21.1 1.5,-9.1 2.8,-18.4 3.5,-27.6 0.8,-5.9 0,-11.6 -0.5,-17.2 z m -76.4,59.2 c 1.5,-1.6 2.8,-3.6 4.6,-4.7 0.7,-0.4 2.6,1 3.9,1.6 -0.1,0.3 -0.1,0.6 -0.2,0.8 -2.6,1 -5.2,2 -7.8,3 -0.1,-0.2 -0.3,-0.4 -0.5,-0.7 z m 0.6,2.5 c 2.2,-0.7 4.3,-1.3 6.4,-2 0.2,0.3 0.3,0.5 0.5,0.8 -1.7,1.4 -3.5,2.8 -5.6,4.4 -0.6,-1.5 -0.9,-2.2 -1.3,-3.2 z m 0.5,-60.3 c 6.7,1.3 12.7,3.7 17.7,8.8 6.7,6.8 10.3,14.4 10.8,24 0.3,6.5 0.4,13 -2,18.9 -3.7,9.4 -9.7,17.3 -19.5,21.4 -2,0.8 -3.4,0.9 -3.9,-1.8 -0.3,-1.8 -1.2,-3.6 -1.9,-5.7 3.9,-1.3 5.8,-4.1 7.1,-7.5 0.8,-2 0.1,-3.7 -2.3,-5.4 -1.8,-1.3 -3.6,-1.2 -5.2,0.3 -0.7,0.7 -1.2,1.6 -1.8,2.5 -0.3,-0.2 -0.6,-0.4 -0.9,-0.5 -0.1,-1.7 -0.3,-3.5 -0.4,-5.2 0.3,-0.1 0.4,-0.3 0.5,-0.3 4.7,0 5.5,0 5.3,-5.2 -0.2,-5.8 0.5,-11.4 3.4,-16.6 2.6,-4.7 6.8,-6.5 12,-5.3 0.7,0.2 1.4,0.3 2.6,0.5 -1.4,-2.8 -3.7,-2.9 -5.7,-2.9 -4.4,0 -7.8,2.2 -10.3,5.7 -2.5,3.6 -3.2,7.7 -3.9,11.8 -0.4,2.4 -0.7,4.9 -0.7,7.3 0,2.3 -1,3.1 -3.3,2.9 -0.2,-3.1 -0.5,-6.3 -0.4,-9.5 0.1,-12.2 0.4,-24.4 0.6,-36.6 0.1,-1.4 0.7,-1.9 2.2,-1.6 z"
   id="path92"
   style="fill:#f5b4c1" />
&#10;							<path
   class="st5"
   d="m 1452.3,1907.1 c 6.7,5.8 13.9,5.4 18.9,-1 -6.3,-9.4 -16.1,-7.4 -18.9,1 z m 1.9,0.1 c 0.8,-1 1.6,-2 2.5,-3.2 0.3,1.9 0.5,3.5 0.8,5.5 -1.3,-0.9 -2.2,-1.5 -3.3,-2.3 z m 15.3,-1.3 c -1.2,0.9 -2.1,1.5 -3.3,2.3 -0.2,-2 -0.4,-3.8 -0.6,-5.9 1.4,1.2 2.5,2.3 3.9,3.6 z"
   id="path93"
   style="fill:#f5b4c1" />
&#10;						</g>
&#10;					</g>
&#10;				</g>
&#10;			</g>
  </g>
</svg>
