<?xml version="1.0" encoding="UTF-8" standalone="no"?>
<!-- Created with Inkscape (http://www.inkscape.org/) -->

<svg
   width="21.166664mm"
   height="21.166668mm"
   viewBox="0 0 21.166664 21.166668"
   version="1.1"
   id="svg1"
   inkscape:version="1.3 (0e150ed6c4, 2023-07-21)"
   sodipodi:docname="portada-icono-1.svg"
   xmlns:inkscape="http://www.inkscape.org/namespaces/inkscape"
   xmlns:sodipodi="http://sodipodi.sourceforge.net/DTD/sodipodi-0.dtd"
   xmlns="http://www.w3.org/2000/svg"
   xmlns:svg="http://www.w3.org/2000/svg">
  <sodipodi:namedview
     id="namedview1"
     pagecolor="#ffffff"
     bordercolor="#666666"
     borderopacity="1.0"
     inkscape:showpageshadow="2"
     inkscape:pageopacity="0.0"
     inkscape:pagecheckerboard="0"
     inkscape:deskcolor="#d1d1d1"
     inkscape:document-units="mm"
     inkscape:zoom="1.0627876"
     inkscape:cx="-133.14043"
     inkscape:cy="81.389734"
     inkscape:window-width="3440"
     inkscape:window-height="1400"
     inkscape:window-x="2560"
     inkscape:window-y="0"
     inkscape:window-maximized="1"
     inkscape:current-layer="layer1" />
  <defs
     id="defs1" />
  <g
     inkscape:label="Capa 1"
     inkscape:groupmode="layer"
     id="layer1"
     transform="translate(-140.22917,-127)">
    <path
       class="st4"
       d="m 150.32462,137.68378 c -0.83138,0.40148 -1.36774,0.66914 -1.8773,0.93679 -1.68959,0.91003 -3.48644,1.713 -5.01512,2.83715 -1.15321,0.82974 -2.09187,2.06096 -2.86961,3.26542 -0.5632,0.8565 -0.40228,1.90035 0.40228,2.70332 0.80456,0.80297 1.8505,0.96357 2.70871,0.42827 1.23366,-0.80298 2.54777,-1.71302 3.40597,-2.8907 1.23367,-1.713 2.11868,-3.69366 3.1378,-5.54049 0.18774,-0.34795 0.37547,-0.66914 0.67047,-1.20445 0.26819,0.50854 0.45592,0.82973 0.61683,1.15092 1.15322,2.03419 2.17232,4.14867 3.54008,6.02227 0.75093,1.04385 1.95778,1.90036 3.11098,2.43567 0.64366,0.29442 1.77005,0 2.46732,-0.40149 0.8314,-0.48178 0.91185,-1.47211 0.61683,-2.43567 -0.50955,-1.65947 -1.60912,-2.86392 -3.05733,-3.72042 -1.87732,-1.0974 -3.80827,-2.06096 -5.73922,-3.10481 -0.295,-0.1606 -0.59001,-0.34796 -1.04593,-0.61561 0.56319,-0.29443 0.91184,-0.48179 1.26049,-0.66914 1.71639,-0.96356 3.54007,-1.76654 5.12238,-2.91746 1.20684,-0.88326 2.22595,-2.14125 3.11099,-3.37247 0.61683,-0.85651 0.50954,-1.98066 -0.32184,-2.83716 -0.77775,-0.82973 -1.82367,-0.96356 -2.7087,-0.45501 -1.04593,0.58884 -2.14549,1.28475 -2.86961,2.22154 -1.09956,1.41859 -1.87731,3.05128 -2.76234,4.63046 -0.48273,0.8565 -0.88501,1.7933 -1.39457,2.86392 -0.26818,-0.45501 -0.42909,-0.66914 -0.56319,-0.91002 -0.88502,-1.65948 -1.58232,-3.45278 -2.65507,-4.97841 -0.93865,-1.33829 -2.14549,-2.54274 -3.4328,-3.58661 -0.91183,-0.74943 -2.11867,-0.72266 -3.05734,0.13383 -0.93866,0.8565 -1.01911,2.00743 -0.40228,3.05129 0.59001,0.99033 1.31413,2.03419 2.22596,2.70332 1.58231,1.15093 3.32552,2.06096 5.04194,3.05128 0.64364,0.4015 1.34093,0.72269 2.33322,1.20447 z"
       id="path97"
       style="fill:#cc5e41;stroke-width:0.267922" />
  </g>
</svg>
