<?xml version="1.0" encoding="UTF-8" standalone="no"?>
<!-- Created with Inkscape (http://www.inkscape.org/) -->

<svg
   width="21.166666mm"
   height="21.166664mm"
   viewBox="0 0 21.166666 21.166664"
   version="1.1"
   id="svg1"
   inkscape:version="1.3 (0e150ed6c4, 2023-07-21)"
   sodipodi:docname="portada-icono-3.svg"
   xmlns:inkscape="http://www.inkscape.org/namespaces/inkscape"
   xmlns:sodipodi="http://sodipodi.sourceforge.net/DTD/sodipodi-0.dtd"
   xmlns="http://www.w3.org/2000/svg"
   xmlns:svg="http://www.w3.org/2000/svg">
  <sodipodi:namedview
     id="namedview1"
     pagecolor="#ffffff"
     bordercolor="#666666"
     borderopacity="1.0"
     inkscape:showpageshadow="2"
     inkscape:pageopacity="0.0"
     inkscape:pagecheckerboard="0"
     inkscape:deskcolor="#d1d1d1"
     inkscape:document-units="mm"
     inkscape:zoom="4.2511504"
     inkscape:cx="33.520338"
     inkscape:cy="33.990799"
     inkscape:window-width="3440"
     inkscape:window-height="1440"
     inkscape:window-x="2560"
     inkscape:window-y="0"
     inkscape:window-maximized="0"
     inkscape:current-layer="layer1" />
  <defs
     id="defs1" />
  <g
     inkscape:label="Capa 1"
     inkscape:groupmode="layer"
     id="layer1"
     transform="translate(-94.456249,-207.96249)">
    <path
       class="st8"
       d="m 97.559317,218.62197 c -0.2067,0.28409 -0.32153,0.44981 -0.45932,0.61552 -1.35499,1.70453 -2.1588,3.62211 -2.38847,5.80011 -0.1378,1.2784 -0.0459,1.42044 1.1483,1.42044 1.30906,0 2.59516,-0.0237 3.90423,0.0237 0.734903,0.0236 1.033463,-0.21307 1.171263,-0.99431 0.43636,-2.32004 2.1588,-3.76415 4.27168,-3.7168 2.11287,0.0473 3.74346,1.5388 4.13388,3.88252 0.0919,0.59184 0.29856,0.80491 0.87271,0.80491 1.46982,-0.0237 2.96261,-0.0473 4.43244,0 0.82678,0.0237 1.03347,-0.3551 0.96457,-1.11267 -0.22966,-2.34372 -1.03347,-4.42703 -2.52626,-6.20257 -0.43636,-0.52082 -0.45932,-0.82859 -0.023,-1.37309 1.37796,-1.68084 2.13584,-3.62211 2.3655,-5.82377 0.0919,-0.94696 -0.023,-1.42045 -1.12534,-1.32574 -1.21719,0.0947 -2.45736,0.0947 -3.69752,0 -0.94161,-0.071 -1.355,0.21306 -1.51576,1.23104 -0.32153,1.89391 -1.74541,3.14863 -3.60566,3.43271 -1.58465,0.26042 -3.35304,-0.61551 -4.17982,-2.17799 -0.36745,-0.71022 -0.52822,-1.53881 -0.84974,-2.48576 -1.355003,0 -2.824823,0 -4.294643,0 -1.76838,0 -1.86025,0.071 -1.58466,1.89391 0.023,0.18939 0.0689,0.35511 0.0919,0.52082 0.43635,2.15433 1.44685,3.95354 2.89372,5.58705 z"
       id="path98"
       style="fill:#2a6e6d;stroke-width:0.233173" />
  </g>
</svg>
